# Blender 5.0.1
# www.blender.org
mtllib trench_rock01_LOD2.mtl
o ydzlfb1_LOD0_TIER2_000
v -0.224487 0.008931 -0.001311
v 0.048060 0.058777 -0.048036
v -0.009184 0.044438 0.006900
v 0.018874 0.057934 -0.018968
v 0.216536 0.080133 -0.008375
v 0.177946 0.021306 -0.062680
v 0.236814 0.019998 0.024693
v 0.060838 0.060802 -0.058895
v 0.006510 0.005148 -0.126829
v 0.127869 0.071102 0.072643
v -0.007554 0.048576 -0.016919
v 0.063254 0.084902 0.058004
v 0.013604 0.044483 -0.009184
v 0.130774 -0.001017 0.119417
v 0.174269 0.089956 0.040200
v 0.000881 0.034061 -0.104895
v -0.181004 0.018282 -0.012758
v 0.201444 0.101664 -0.007482
v -0.059073 0.033244 -0.116682
v -0.016902 0.007006 0.021706
v -0.174885 0.012184 -0.025216
v 0.107911 0.060283 -0.039618
v 0.037482 0.059171 -0.027188
v 0.171108 0.077148 0.082444
v 0.013665 0.018650 -0.005935
v 0.138127 -0.000295 -0.087866
v 0.184113 0.052488 -0.044161
v -0.003176 0.048296 -0.077387
v -0.153228 -0.000769 -0.075580
v 0.090482 0.045222 0.087835
v 0.107663 0.040600 -0.065895
v -0.001933 0.010584 0.023777
v -0.014671 0.031524 0.025226
v 0.183994 0.075039 -0.016862
v 0.193856 0.025422 -0.058056
v 0.146473 0.113446 0.019577
v -0.161537 -0.000403 0.063356
v 0.079093 0.112040 0.013960
v -0.174516 0.007127 -0.037144
v 0.061046 0.005864 -0.105384
v 0.118256 0.114152 -0.003504
v -0.068776 0.017195 -0.105405
v 0.137459 0.081622 -0.026220
v -0.010351 0.047418 -0.058183
v 0.223772 0.063163 -0.001182
v 0.206214 0.088648 -0.022146
v 0.118468 0.033058 0.085795
v -0.011449 0.023785 0.017488
v 0.094204 0.041540 -0.054808
v 0.207713 0.071785 -0.007588
v -0.127382 0.032654 0.023723
v 0.116745 0.049066 0.073750
v -0.174311 0.016281 -0.061883
v 0.217265 0.035939 0.047083
v -0.162946 0.046407 0.002105
v 0.167664 0.023404 0.090088
v 0.099581 -0.000721 0.127131
v -0.224258 0.028190 0.016450
v -0.102849 0.028931 0.021238
v 0.053344 0.045651 0.086343
v -0.104581 0.000134 -0.099223
v 0.189874 0.078938 0.050634
v 0.217069 0.063900 0.011065
v 0.159318 0.007076 0.095537
v 0.074461 0.009402 -0.107767
v -0.048218 0.026221 0.031621
v 0.073804 0.053697 -0.052546
v -0.153911 0.030024 0.001911
v 0.199709 0.076749 0.049520
v -0.093112 0.005266 0.048198
v -0.045626 0.044137 0.012196
v 0.156060 0.046537 0.102944
v 0.097761 0.000034 -0.117179
v -0.021710 0.045874 -0.092419
v 0.182556 0.092298 0.054563
v -0.162574 0.013035 -0.043905
v 0.140364 0.012397 -0.063737
v -0.054073 0.045157 -0.082792
v -0.209251 0.021519 -0.015579
v 0.221606 0.011473 -0.040884
v 0.213531 0.015733 0.057485
v -0.150028 0.000831 0.063163
v -0.039750 0.055345 -0.016332
v 0.035157 0.076293 -0.011348
v 0.092923 0.110183 -0.034189
v -0.156021 0.016214 0.029189
v -0.233897 0.004142 0.009993
v 0.137978 0.110328 0.019396
v -0.110363 0.005632 -0.072175
v 0.108422 0.010012 -0.085262
v -0.139535 0.003823 -0.062867
v -0.068931 0.026720 0.004842
v -0.056739 0.006625 0.031487
v 0.053653 -0.000780 -0.124697
v -0.128623 0.049820 0.003904
v -0.178316 0.010152 0.047823
v -0.089001 0.049677 0.015065
v -0.081248 -0.000406 -0.110481
v 0.152997 0.029892 -0.059067
v 0.129998 0.018167 -0.064735
v 0.140518 0.015826 0.081497
v 0.016094 0.017738 0.058570
v 0.166935 0.081224 0.069739
v -0.111136 0.005906 0.050742
v 0.097243 0.098759 0.018333
v 0.067308 0.106213 -0.034921
v 0.166981 0.091422 -0.007038
v 0.037827 0.061813 0.029713
v 0.062715 0.111596 -0.010471
v 0.145031 0.058838 0.092122
v 0.191630 0.083028 -0.024742
v 0.097532 0.061648 -0.046470
v 0.068258 0.110332 -0.000824
v 0.084836 0.067793 -0.043721
v 0.159847 0.014633 0.090991
v 0.178877 0.036632 0.082987
v 0.081764 0.116994 -0.000136
v -0.024010 0.041256 -0.104457
v -0.028827 0.009726 0.036545
v -0.142523 -0.000348 -0.078539
v 0.000893 0.012844 0.036937
v 0.175687 0.085074 -0.014242
v -0.039506 0.032827 0.038029
v 0.050457 0.071088 0.060537
v 0.116134 0.048362 0.089653
v 0.078472 0.000316 -0.102758
v 0.201966 0.013971 0.081319
v 0.048709 0.007576 -0.101059
v 0.163191 -0.000615 0.097194
v -0.138887 0.007382 0.028337
v -0.001737 0.006472 0.060826
v -0.086077 0.054635 0.000834
v 0.212190 0.038953 -0.047728
v 0.105860 -0.000425 -0.109665
v -0.177544 0.034323 0.033294
v 0.068255 0.077488 -0.023696
v -0.069074 0.007288 0.043789
v 0.023156 0.024617 0.021829
v 0.034373 0.014799 -0.106003
v 0.014824 0.056224 -0.003883
v 0.009329 0.023877 -0.119611
v 0.207497 0.065547 0.027047
v -0.082437 0.010376 -0.086393
v 0.032788 0.078247 -0.024128
v -0.043584 0.042407 -0.056667
v 0.035221 0.006092 -0.112420
v 0.081312 0.005495 -0.120658
v 0.082556 0.132235 -0.022838
v -0.003792 -0.000581 -0.143587
v 0.205304 -0.000596 0.064217
v 0.120061 0.105367 0.036055
v 0.201056 0.080595 0.028240
v 0.171515 0.055386 -0.029843
v 0.091802 0.076443 -0.030894
v -0.219180 0.017498 0.000105
v 0.208577 -0.000570 0.049868
v 0.030030 0.005684 0.095151
v 0.166966 0.089147 0.036152
v -0.222256 0.005087 0.019784
v -0.167657 0.020486 0.023316
v 0.015130 0.036566 -0.067868
v 0.134492 0.049240 0.101052
v 0.173853 0.079886 0.053450
v -0.145537 0.038593 0.002619
v 0.182810 0.081548 0.062242
v 0.084257 0.096005 0.014719
v 0.206834 0.013789 0.070375
v 0.056114 0.013243 0.094339
v -0.199406 -0.000861 0.043546
v 0.170592 0.045430 -0.051409
v 0.033821 0.015223 -0.081161
v -0.191178 -0.000618 0.053096
v -0.109497 0.040523 0.003460
v 0.119804 0.041406 0.095553
v -0.109466 -0.000395 -0.092164
v 0.204703 0.068475 0.008957
v 0.117496 0.042506 -0.047283
v -0.039010 -0.000733 -0.137756
v 0.154111 0.084920 0.047870
v -0.089198 0.019477 -0.063374
v 0.003848 0.027210 -0.000073
v 0.178465 0.099397 -0.001475
v 0.100830 0.020318 0.112820
v -0.054233 0.000681 0.034872
v 0.135482 0.008991 0.107049
v 0.159988 0.030395 0.102338
v -0.176190 0.003909 0.046903
v 0.234198 0.012519 0.004456
v 0.219209 0.030375 0.028594
v -0.022473 0.050573 -0.022424
v 0.056435 0.094962 0.018655
v 0.127231 0.096390 0.048336
v -0.202750 0.015494 -0.031895
v 0.083446 0.118218 -0.017964
v -0.015649 -0.000915 -0.143024
v -0.092580 0.005870 -0.066151
v 0.050171 0.071375 0.000510
v -0.019862 0.056247 -0.089560
v 0.144848 0.056923 -0.040999
v -0.127310 0.050395 -0.000621
v 0.202504 0.088129 0.008657
v -0.162341 0.002220 0.040285
v 0.228064 0.049858 0.007902
v -0.002401 0.000264 0.089878
v -0.000250 0.024984 -0.106603
v -0.095036 0.052345 0.003017
v 0.158783 0.025495 -0.064770
v 0.200962 0.068574 -0.020732
v -0.180446 0.007878 -0.057405
v 0.046867 0.040868 -0.065698
v -0.029454 0.055605 0.003124
v -0.228264 -0.000689 0.018334
v -0.228161 0.026021 0.014995
v 0.039957 0.021555 -0.068556
v 0.036346 0.064293 0.017963
v 0.117047 0.087959 0.054488
v 0.211332 0.063176 -0.013207
v 0.019851 0.007235 0.067766
v -0.063975 -0.000339 -0.124104
v 0.060226 0.069221 -0.030309
v 0.041957 0.048486 -0.035835
v -0.034480 0.043794 -0.116068
v 0.205928 0.047723 0.034453
v -0.003510 0.003359 0.076535
v -0.138808 0.010252 0.022582
v 0.095802 0.103696 -0.000615
v 0.060429 0.057061 0.057562
v -0.160874 0.014577 -0.011923
v 0.044247 0.040796 -0.053746
v 0.124160 0.032455 -0.060721
v -0.176320 -0.000752 0.059368
v -0.039104 0.043885 -0.050637
v 0.179928 0.044566 -0.058314
v 0.218468 0.034242 0.015582
v 0.112319 0.096992 -0.025206
v 0.030648 0.031876 -0.011219
v 0.085661 0.052441 0.068665
v 0.124021 0.020750 0.095630
v -0.173510 0.027319 0.034209
v 0.203950 0.027177 0.079185
v 0.108303 0.023640 -0.068235
v -0.203458 0.024507 0.014148
v 0.043417 0.054031 -0.058130
v -0.031671 0.020078 0.022282
v -0.088147 0.016783 -0.074392
v -0.017955 0.034077 -0.112672
v -0.015675 0.000114 0.087197
v 0.199236 0.095943 0.039518
v 0.195004 0.090809 0.050796
v 0.049411 0.077950 -0.009815
v 0.090631 0.051625 -0.053699
v 0.100947 0.118448 -0.006169
v 0.024998 0.054297 0.043277
v 0.127046 0.002792 -0.086913
v -0.065798 0.040239 -0.044907
v -0.069076 0.002899 -0.099490
v -0.019304 0.042345 -0.058013
v -0.096976 0.001657 0.059403
v 0.016214 0.064881 -0.014073
v 0.179371 0.097439 0.039560
v 0.150474 0.047181 -0.045661
v -0.050810 0.045735 -0.106066
v 0.106950 0.061285 0.080365
v 0.102726 0.102229 0.004487
v 0.071305 0.020127 -0.073210
v -0.185337 0.035313 0.019497
v 0.035868 0.052132 0.063007
v 0.055933 0.083900 0.014879
v -0.068393 -0.000851 -0.117746
v -0.083529 0.033490 -0.082003
v 0.032670 0.017909 0.005268
v 0.097282 0.018727 0.097574
v 0.124876 0.104397 -0.030275
v 0.070580 0.109289 -0.029893
v -0.210613 -0.000235 0.042300
v -0.046933 -0.000852 0.078237
v 0.031337 0.012930 0.090908
v -0.115321 0.042957 -0.024062
v 0.121490 0.022677 -0.078050
v 0.131438 0.110346 -0.004186
v -0.170814 0.038475 0.008465
v 0.040324 0.000089 -0.124921
v 0.145067 0.053428 -0.024097
v 0.078071 0.101580 0.015063
v 0.085318 0.005777 0.135202
v 0.062174 0.008123 -0.120060
v 0.144012 -0.001086 0.112731
v -0.126209 -0.001503 0.063919
v -0.067754 0.029967 -0.061200
v 0.055480 0.017322 0.070758
v -0.063582 0.021009 0.030428
v 0.121783 0.069588 -0.037861
v 0.084053 0.086483 0.047541
v 0.142227 0.103896 0.004686
v -0.119871 0.006929 0.024893
v -0.045024 -0.000766 -0.138335
v 0.079956 0.018113 0.085770
v 0.015491 0.027186 -0.087196
v 0.099379 0.053318 0.065342
v 0.131541 0.055882 0.075148
v 0.086654 0.086646 0.039969
v 0.194240 0.042247 0.073597
v 0.013831 0.014042 -0.116460
v 0.026668 0.040222 0.006884
v -0.055583 0.036316 -0.110354
v 0.107426 0.121284 -0.017454
v 0.089032 0.085248 0.057143
v -0.019961 0.026426 0.025754
v 0.201458 -0.000684 0.080532
v 0.200056 0.050171 0.049099
v -0.001576 0.016943 -0.128554
v 0.077025 0.063149 -0.053292
v 0.210952 0.086172 -0.013332
v 0.082981 -0.000570 -0.123396
v 0.194475 0.039657 -0.053393
v 0.132606 0.066473 0.061793
v -0.047922 0.053583 -0.082328
v 0.098700 0.014706 0.083003
v 0.000671 0.035657 -0.001971
v -0.147355 0.027316 -0.011673
v -0.030952 0.002220 0.047721
v 0.161388 0.070434 0.072415
v 0.009962 0.006478 0.050949
v 0.030368 0.027758 -0.062636
v 0.027823 0.024286 -0.013505
v 0.231705 0.029216 0.010159
v -0.063353 0.036015 -0.052561
v -0.082245 0.035896 -0.060961
v 0.003193 -0.000313 -0.139356
v 0.213558 0.061099 0.025118
v 0.040432 0.074625 0.052317
v 0.020862 0.049206 -0.032589
v 0.093954 0.023189 -0.077461
v 0.138347 0.110321 -0.024326
v -0.003585 0.006930 0.047698
v 0.092535 0.049569 0.066408
v 0.191570 0.061954 0.064857
v -0.160312 0.027017 -0.028763
v 0.148346 -0.001044 -0.080813
v -0.142614 0.032096 -0.002672
v -0.121911 0.033535 -0.047173
v -0.053329 0.050297 -0.030558
v 0.170911 0.098289 0.009343
v 0.152588 0.104427 0.030701
v -0.058420 0.000501 0.078060
v -0.201571 0.000137 -0.049598
v 0.173530 0.090384 0.021589
v -0.055957 0.045194 -0.055050
v 0.197527 0.069273 0.032850
v 0.018718 0.011766 -0.108057
v -0.087233 0.031812 -0.068669
v -0.163991 0.022420 -0.038987
v 0.013825 -0.001364 -0.138454
v 0.079242 0.090726 -0.024949
v 0.041356 0.051013 -0.046750
v 0.120126 0.020576 0.083762
v 0.192487 0.093730 0.007589
v -0.001781 0.043610 -0.047217
v -0.000582 0.041338 -0.022470
v 0.146109 0.041130 -0.053625
v 0.053023 0.063497 0.035829
v 0.130220 0.056479 -0.031655
v 0.043726 0.022094 0.046368
v 0.062418 0.006984 0.124929
v 0.072251 0.075053 0.069874
v 0.075135 0.109376 0.010232
v -0.088260 0.007732 -0.084894
v 0.108505 0.007891 0.115984
v 0.082008 -0.000510 0.136830
v 0.185550 -0.000795 -0.064566
v -0.092969 -0.001896 0.065503
v -0.089606 0.023273 0.004777
v 0.010028 0.041127 -0.019340
v -0.099428 0.045011 -0.052991
v 0.219025 0.018925 -0.031566
v -0.162038 0.008278 -0.070168
v -0.123755 -0.000610 -0.082051
v -0.019202 0.050189 -0.036762
v 0.018100 0.029860 -0.071655
v -0.200435 0.004441 0.028262
v 0.237946 0.007693 0.010071
v 0.078732 0.124096 -0.007433
v 0.059702 0.089264 -0.016393
v -0.057918 0.010732 0.065475
v -0.021164 0.020301 -0.130331
v -0.172422 0.012570 -0.072528
v 0.157979 -0.001214 -0.079091
v -0.098973 0.016759 0.013966
v -0.004588 0.040433 -0.084760
v 0.012151 0.011104 0.034804
v 0.105165 0.092805 0.033531
v -0.087422 0.011202 -0.068447
v 0.017386 0.017244 0.036513
v -0.078034 0.003476 0.051811
v 0.140769 0.097363 0.031673
v 0.195443 0.094282 -0.024243
v 0.043619 0.104174 -0.004170
v 0.011827 0.016346 -0.089521
v -0.195951 0.003115 0.043105
v 0.020257 0.053602 -0.045556
v -0.036575 0.032819 -0.123856
v -0.022881 0.050761 -0.010698
v -0.141576 0.042864 -0.008453
v -0.133821 0.016380 -0.069377
v -0.091647 0.055077 -0.022093
v 0.052824 0.028832 0.079034
v 0.108032 0.050135 0.073630
v 0.170489 0.034425 -0.053562
v 0.170504 0.052236 0.087485
v -0.192590 0.011367 0.050254
v -0.056000 0.028195 -0.066258
v -0.136134 -0.000734 0.064677
v -0.057999 0.053020 -0.034529
v 0.059896 0.113657 0.018066
v 0.028625 -0.000589 0.102353
v 0.058451 0.050564 -0.061175
v 0.018685 -0.000108 -0.133163
v 0.235848 -0.000601 0.005172
v -0.177166 -0.000647 -0.069736
v 0.215712 0.088051 0.011983
v 0.088682 0.031435 -0.068328
v 0.042039 0.019026 0.050849
v 0.064934 0.017815 0.090545
v 0.104129 0.104520 0.028699
v -0.115729 0.000747 0.064203
v 0.217672 0.020000 0.044430
v 0.138752 0.095381 0.046682
v -0.082247 0.037533 0.012940
v -0.144112 0.035629 -0.015214
v -0.206113 0.020665 0.048848
v 0.048374 0.079956 0.038337
v -0.104224 0.007605 -0.087194
v 0.122323 -0.000281 -0.102381
v -0.157479 0.016616 -0.056275
v 0.025603 0.005093 0.083389
v 0.078047 0.098306 -0.029006
v -0.033882 0.051228 -0.086665
v 0.025498 0.070564 -0.024702
v 0.052537 -0.000740 0.114928
v 0.082668 0.048200 -0.057218
v 0.212754 0.055642 -0.027267
v 0.091769 0.125538 -0.020366
v -0.006762 0.011077 0.072043
v -0.214435 0.009728 -0.024169
v -0.111474 0.016230 0.020008
v 0.221616 -0.000604 -0.037787
v 0.046070 0.073073 0.034674
v 0.125578 0.111753 -0.015018
v 0.233761 0.032507 -0.009869
v -0.058218 0.004205 0.055871
v -0.092183 0.049219 -0.027300
v -0.153991 0.003577 0.046179
v -0.068372 0.037333 -0.096719
v 0.134344 0.032805 0.097193
v -0.029560 -0.001485 -0.145319
v -0.170395 0.036139 0.024605
v -0.188717 0.022097 0.029004
v -0.148340 0.011674 -0.064841
v 0.173983 0.059335 0.077261
v -0.075340 0.018391 0.026612
v -0.130167 0.023754 0.029486
v -0.044192 0.041115 0.026719
v -0.195067 0.024645 -0.004637
v 0.108599 0.041716 0.074776
v -0.050458 0.037222 -0.099915
v 0.023418 0.019502 -0.091924
v 0.129403 -0.000629 -0.097177
v -0.078242 0.012083 0.039224
v 0.065274 0.094649 0.008337
v 0.012652 0.017589 0.014699
v 0.083295 0.109565 -0.031179
v 0.067466 0.076543 -0.050500
v 0.037746 0.029846 -0.064954
v -0.117790 0.008646 -0.065391
v 0.100422 0.097900 -0.035488
v -0.029032 0.012284 0.064662
v 0.188110 0.029969 -0.066891
v -0.020540 0.054901 0.010970
v 0.144641 0.019737 0.077251
v 0.216791 0.044621 -0.030295
v 0.053228 0.082413 -0.039180
v -0.025987 0.049009 -0.066410
v -0.134913 0.027147 0.024187
v -0.065886 0.058001 -0.015253
v 0.067218 0.062093 0.063663
v 0.057518 0.026042 -0.071839
v -0.144748 0.025225 -0.035381
v -0.041997 0.048994 0.000928
v 0.154837 0.080971 0.053783
v -0.069416 0.007667 -0.119122
v 0.036991 0.004476 -0.118717
v -0.210558 0.008748 0.037174
v 0.155392 0.055580 -0.032301
v 0.067401 -0.000303 -0.123228
v 0.092538 0.072357 0.067841
v -0.051964 0.026960 0.010395
v 0.063107 0.025390 0.084672
v 0.206837 0.037880 0.063642
v -0.007058 0.050580 -0.051348
v 0.237133 -0.000605 0.026059
v 0.185217 0.094474 0.022191
v -0.150884 0.012762 0.037007
v -0.009509 0.002248 0.040675
v -0.045729 0.029455 -0.129673
v 0.080144 0.016087 -0.083378
v 0.165185 0.104528 0.020126
v 0.052715 0.077993 0.052757
v -0.220369 0.007690 0.027067
v 0.194215 0.065430 0.050471
v 0.115732 0.000088 0.125324
v -0.172939 0.033350 0.006889
v 0.077151 0.115945 -0.011609
v -0.110875 0.001802 0.027692
v -0.036760 0.035818 -0.034842
v -0.059027 0.042372 0.015112
v 0.021913 0.061029 0.022364
v 0.167000 0.065491 0.078153
v -0.212128 0.006530 0.042781
v -0.155730 0.032957 0.028560
v -0.215635 -0.001245 -0.028602
v 0.058156 0.065313 0.047404
v 0.082607 0.014048 0.115793
v 0.013585 0.015690 -0.100111
v 0.111691 0.085662 -0.033551
v 0.154933 0.104299 -0.002865
v 0.082829 0.124063 -0.027563
v -0.167914 0.018503 -0.022751
v -0.068824 0.054754 -0.027059
v -0.194262 0.015808 0.023080
v 0.054170 0.059376 -0.039179
v -0.058189 0.052343 0.002135
v -0.055022 0.028746 0.019929
v 0.058266 0.088879 0.013027
v -0.144052 0.046907 -0.001433
v 0.086192 0.006085 -0.104939
v 0.101473 0.035336 -0.065078
v 0.045180 0.086281 -0.007287
v 0.197107 -0.000735 -0.061422
v 0.007842 -0.000636 0.095634
v 0.124836 0.078521 -0.035264
v 0.127490 0.079064 0.062213
v -0.045859 0.013526 0.029592
v -0.049414 0.034360 -0.056596
v 0.158078 0.071734 0.061226
v 0.046115 0.091994 0.004664
v 0.050578 0.010900 0.117947
v 0.185563 0.013272 0.091785
v -0.054422 0.050263 0.010955
v -0.199512 0.006709 -0.031785
v -0.137493 0.004323 0.039339
v -0.232709 -0.000717 0.008611
v 0.160932 0.066598 -0.016612
v -0.023805 0.015300 0.026997
v -0.164323 0.030107 -0.019793
v 0.181926 0.094281 0.002616
v -0.057424 0.021148 0.039832
v 0.137872 0.112707 -0.011102
v 0.142380 0.053935 0.085371
v 0.117888 0.108612 -0.021504
v 0.089734 -0.000429 -0.119545
v 0.062374 0.099736 0.023687
v -0.010135 0.014314 0.058591
v 0.109645 0.035273 0.083269
v 0.212306 0.023629 -0.046390
v -0.101447 -0.000752 0.063365
v -0.131853 -0.000699 -0.078830
v 0.033498 0.028177 0.022914
v 0.131217 0.062409 0.069537
v -0.089685 0.004402 0.024703
v 0.073311 0.016515 0.098469
vn -0.4170 0.8090 -0.4142
vn -0.7882 0.2294 0.5710
vn 0.1608 0.6964 0.6994
vn 0.3238 0.9368 0.1328
vn 0.1708 0.9566 -0.2362
vn 0.0645 0.9700 0.2343
vn -0.1810 0.9455 0.2708
vn -0.7220 0.6433 0.2545
vn -0.6588 0.4367 0.6127
vn -0.8771 0.1557 -0.4544
vn -0.5928 0.2178 -0.7753
vn -0.9355 0.2670 -0.2316
vn -0.7365 0.6196 0.2713
vn 0.0977 0.3724 -0.9229
vn -0.8778 -0.1421 -0.4574
vn 0.3085 0.8266 0.4707
vn 0.1730 0.8136 0.5551
vn -0.2291 0.9303 0.2866
vn -0.9390 0.0115 -0.3437
vn -0.0951 0.6908 -0.7168
vn 0.3467 0.8069 0.4783
vn 0.3304 0.6803 0.6542
vn 0.3422 0.6587 0.6701
vn -0.8733 0.3307 0.3577
vn -0.8848 0.2291 0.4058
vn 0.1618 0.9388 0.3041
vn 0.1957 0.8184 0.5403
vn 0.0296 0.5949 0.8033
vn -0.0616 0.2639 -0.9626
vn 0.1162 -0.0226 -0.9930
vn 0.5257 0.0342 -0.8500
vn -0.5656 0.4458 0.6938
vn 0.4637 0.7201 0.5161
vn 0.5245 0.4793 0.7037
vn -0.8082 0.4106 0.4222
vn -0.4824 -0.1982 0.8533
vn -0.6819 -0.3645 0.6342
vn -0.1657 0.9124 -0.3742
vn -0.3179 0.7216 -0.6150
vn 0.1660 0.8352 -0.5243
vn -0.1109 0.4473 -0.8875
vn 0.1935 0.5441 -0.8164
vn -0.0121 0.2865 -0.9580
vn -0.2783 0.9562 0.0905
vn -0.0946 0.7984 -0.5947
vn 0.0910 0.9867 -0.1346
vn -0.0119 0.6963 0.7177
vn 0.1273 0.4044 0.9057
vn 0.0731 0.9250 0.3729
vn -0.0283 0.8749 -0.4835
vn -0.0397 0.9366 -0.3480
vn 0.8778 -0.0777 0.4727
vn 0.9549 -0.2938 -0.0438
vn 0.9496 0.3128 0.0224
vn 0.1405 0.2768 0.9506
vn -0.1550 0.6339 0.7577
vn 0.0276 0.7987 0.6011
vn -0.0899 0.4394 0.8938
vn -0.1066 -0.1307 0.9857
vn -0.4121 -0.1325 0.9015
vn -0.7611 0.4439 -0.4729
vn -0.5495 0.8295 -0.0998
vn -0.5667 -0.0810 0.8199
vn -0.4608 0.4736 0.7506
vn -0.6299 -0.0494 0.7751
vn 0.4071 0.8790 0.2481
vn 0.7559 0.4993 0.4235
vn 0.4597 0.5884 -0.6652
vn 0.7427 0.5713 -0.3494
vn 0.1475 0.8541 -0.4987
vn 0.1265 0.7572 -0.6408
vn -0.1608 0.8959 -0.4140
vn 0.2131 0.6365 -0.7412
vn 0.0922 0.8451 0.5267
vn 0.1273 0.9666 0.2222
vn 0.1495 0.9625 0.2264
vn -0.0812 0.6146 -0.7847
vn -0.3384 0.7403 -0.5809
vn 0.2277 0.9703 -0.0812
vn 0.5877 0.0675 -0.8062
vn 0.9783 -0.2039 -0.0378
vn 0.3963 0.2619 -0.8800
vn -0.2697 0.6794 0.6824
vn -0.3073 0.7337 0.6059
vn -0.7546 0.1277 0.6436
vn -0.9359 -0.1297 -0.3276
vn -0.8968 0.4105 0.1649
vn -0.8562 0.4454 -0.2619
vn -0.2744 0.9599 -0.0570
vn -0.4319 0.6884 -0.5827
vn 0.0643 0.8576 0.5102
vn 0.2079 0.8061 0.5540
vn 0.2320 0.3870 0.8924
vn 0.5061 0.6378 -0.5806
vn 0.3104 0.6690 -0.6754
vn -0.5900 0.1488 -0.7936
vn -0.0878 0.3113 -0.9462
vn -0.3490 0.1628 -0.9229
vn -0.0331 0.9908 -0.1313
vn 0.1529 0.8631 -0.4813
vn -0.6070 0.6141 -0.5044
vn 0.3903 0.6029 0.6959
vn -0.1351 0.9547 0.2652
vn 0.7147 0.5423 -0.4417
vn 0.0080 0.8529 -0.5220
vn 0.2857 0.6853 0.6699
vn -0.4579 0.6304 0.6268
vn -0.1153 0.8296 -0.5463
vn -0.4068 0.8285 -0.3848
vn -0.2134 0.9309 -0.2965
vn 0.4759 0.8243 -0.3067
vn 0.4091 0.7595 -0.5058
vn 0.6045 0.5731 -0.5533
vn 0.3118 0.8670 -0.3887
vn 0.1415 0.1058 0.9843
vn 0.3839 0.7935 0.4722
vn -0.0940 0.4960 -0.8632
vn 0.1618 0.6225 -0.7657
vn -0.1693 0.5008 -0.8488
vn 0.6361 0.6430 0.4265
vn 0.4087 0.1158 -0.9053
vn 0.1092 0.2574 -0.9601
vn -0.1226 0.1861 -0.9749
vn 0.6760 0.4196 0.6058
vn 0.6214 0.3598 0.6960
vn 0.1846 0.2984 0.9364
vn 0.5004 0.6371 -0.5862
vn 0.4883 0.0160 -0.8725
vn 0.3666 0.5733 -0.7328
vn -0.4514 0.7313 -0.5112
vn -0.1469 0.8761 -0.4593
vn -0.2063 0.6457 -0.7352
vn -0.0247 0.7821 -0.6227
vn 0.0569 0.7592 -0.6483
vn 0.3069 0.7431 -0.5946
vn -0.2849 0.9323 -0.2228
vn -0.6241 0.7802 -0.0429
vn -0.6232 0.3008 -0.7219
vn -0.9988 0.0346 0.0344
vn -0.8794 -0.4658 0.0983
vn -0.0736 0.5398 -0.8386
vn 0.1255 0.5454 -0.8287
vn 0.0690 0.5309 -0.8446
vn -0.0658 0.3798 -0.9227
vn -0.1125 0.8673 0.4849
vn 0.5796 0.3491 0.7364
vn 0.1615 0.6057 0.7791
vn -0.1044 0.4835 0.8691
vn 0.1208 0.6440 -0.7554
vn -0.2289 0.9733 -0.0157
vn -0.2499 0.4937 -0.8329
vn 0.7487 0.6099 0.2598
vn 0.5929 0.1497 0.7912
vn 0.1030 0.1535 0.9828
vn -0.2042 0.8300 0.5191
vn -0.8257 0.1004 0.5551
vn -0.2751 -0.4118 0.8687
vn -0.7743 0.0579 0.6302
vn 0.2430 0.9691 -0.0427
vn 0.1567 0.8576 -0.4898
vn 0.3615 0.8251 -0.4341
vn 0.7674 0.5124 0.3854
vn 0.8431 0.4905 0.2205
vn 0.8253 0.4927 0.2760
vn 0.1782 0.8270 0.5332
vn -0.0037 0.9653 -0.2610
vn 0.0915 0.6168 -0.7817
vn -0.0014 0.0037 1.0000
vn 0.1300 0.7167 0.6852
vn -0.2869 0.9230 0.2564
vn -0.2657 0.9045 0.3335
vn 0.0216 0.7587 -0.6511
vn 0.0315 0.9934 -0.1103
vn -0.0933 0.9645 -0.2471
vn 0.8928 0.0254 -0.4496
vn 0.8856 0.0894 -0.4559
vn 0.9170 0.2655 -0.2977
vn -0.5266 0.7080 0.4706
vn -0.4604 0.8778 0.1323
vn -0.3600 0.7047 0.6113
vn 0.1532 0.5150 -0.8434
vn 0.1302 0.8765 -0.4635
vn 0.3223 0.9374 0.1321
vn -0.1724 0.9673 -0.1861
vn -0.6269 0.5921 -0.5063
vn -0.5546 0.8283 0.0793
vn -0.3753 0.9266 -0.0251
vn -0.7453 0.6664 -0.0218
vn -0.4353 0.2115 -0.8751
vn -0.5952 0.6149 -0.5173
vn -0.2015 0.9794 -0.0144
vn -0.4774 0.7527 0.4533
vn -0.5266 0.6534 0.5438
vn -0.2867 0.9381 0.1942
vn -0.6286 0.7573 0.1768
vn -0.4995 0.8262 0.2607
vn -0.5275 0.8493 -0.0197
vn -0.0580 0.3368 0.9398
vn 0.0357 0.9970 0.0694
vn -0.4520 0.7713 0.4481
vn 0.1458 0.3567 0.9228
vn -0.0925 0.9132 0.3969
vn 0.1462 0.8439 -0.5162
vn 0.1155 0.2763 -0.9541
vn 0.3222 0.7152 -0.6202
vn 0.2455 0.6987 -0.6719
vn 0.2917 0.5209 -0.8022
vn -0.3531 0.8417 0.4084
vn 0.0788 0.7276 0.6815
vn -0.0167 0.9806 -0.1955
vn -0.4242 0.8934 -0.1480
vn -0.0830 0.6113 -0.7870
vn -0.1566 0.6373 -0.7545
vn -0.6301 0.5790 -0.5174
vn -0.6886 0.6320 -0.3557
vn 0.4358 0.8978 -0.0643
vn 0.1413 0.6633 0.7349
vn 0.3107 0.8716 -0.3792
vn 0.2995 0.6885 -0.6605
vn -0.1977 0.7452 -0.6369
vn 0.0450 0.6414 -0.7659
vn -0.6521 -0.3467 0.6742
vn -0.5401 0.7090 -0.4534
vn -0.4659 0.8668 -0.1776
vn -0.7807 0.3790 0.4968
vn -0.4800 0.8128 -0.3301
vn -0.9411 0.3336 0.0552
vn -0.3773 0.2775 0.8835
vn -0.0809 0.9248 0.3719
vn -0.3585 -0.5013 0.7875
vn -0.3003 -0.1156 0.9468
vn 0.2162 -0.1424 0.9659
vn 0.2178 0.4945 0.8415
vn -0.3550 0.5119 0.7823
vn -0.0276 0.4100 -0.9117
vn -0.1002 0.9553 0.2782
vn -0.2922 0.9204 0.2596
vn 0.5217 0.7684 0.3707
vn 0.6848 0.7110 -0.1598
vn 0.7564 0.6489 0.0822
vn 0.1576 0.9062 -0.3923
vn 0.0007 0.6954 -0.7187
vn 0.3993 0.1420 -0.9058
vn 0.4563 0.8671 0.1998
vn 0.0006 0.7081 -0.7061
vn -0.9720 0.1976 0.1274
vn -0.3932 0.6228 0.6764
vn -0.4082 -0.3498 0.8432
vn -0.6769 0.7280 0.1084
vn 0.3169 0.8302 -0.4587
vn 0.1293 0.3698 -0.9201
vn 0.5081 0.4546 -0.7315
vn 0.2384 0.3164 -0.9182
vn -0.0489 0.6741 0.7370
vn 0.2783 0.4578 0.8443
vn 0.0241 0.7982 0.6019
vn -0.0726 0.9937 -0.0850
vn -0.2078 0.9630 0.1716
vn 0.6957 0.6293 -0.3464
vn 0.1065 0.7221 0.6835
vn 0.2186 -0.3398 0.9147
vn -0.2111 0.3002 -0.9302
vn -0.5964 0.2134 -0.7738
vn 0.1118 0.8379 -0.5343
vn 0.2344 0.8793 -0.4146
vn -0.3564 0.9195 0.1659
vn -0.9652 -0.1021 0.2407
vn 0.2711 0.6379 -0.7209
vn 0.2340 0.5144 -0.8250
vn 0.1320 0.6089 -0.7822
vn -0.3462 0.8684 0.3550
vn 0.0073 1.0000 -0.0010
vn -0.4541 0.3548 -0.8172
vn 0.2954 0.2419 0.9242
vn 0.9229 0.1699 0.3457
vn 0.9017 -0.0862 0.4237
vn 0.3003 0.2621 -0.9171
vn 0.0122 0.2273 -0.9737
vn 0.3451 0.9380 -0.0319
vn 0.6440 0.7581 0.1028
vn -0.1175 0.3716 0.9209
vn -0.5065 0.8039 0.3118
vn 0.0788 0.3362 -0.9385
vn -0.0698 0.6461 -0.7600
vn 0.5450 0.2048 0.8130
vn 0.8551 0.2563 0.4508
vn 0.2715 0.1407 0.9521
vn -0.0148 0.6606 0.7506
vn 0.5373 0.1135 0.8357
vn 0.2641 -0.2984 0.9172
vn -0.2468 0.6563 -0.7130
vn -0.1273 0.9687 -0.2133
vn -0.1623 0.6022 0.7817
vn -0.1103 0.7891 0.6043
vn -0.0227 0.6938 0.7198
vn -0.3211 0.8011 0.5052
vn 0.1511 0.7446 -0.6502
vn -0.1447 0.8851 0.4423
vn 0.5988 0.0078 0.8008
vn 0.7090 0.1237 0.6943
vn -0.7639 0.3670 -0.5308
vn -0.3304 0.8927 -0.3066
vn -0.3915 0.2937 -0.8720
vn 0.4839 -0.0195 0.8749
vn 0.5880 0.4465 0.6744
vn 0.6731 0.4472 -0.5891
vn 0.9554 0.2420 -0.1694
vn 0.0097 0.9941 -0.1080
vn 0.1946 0.9459 -0.2597
vn 0.2090 0.9323 -0.2952
vn -0.4567 0.7592 0.4637
vn 0.8528 0.1873 0.4875
vn -0.1983 0.9054 0.3754
vn -0.6697 0.7370 -0.0916
vn -0.3757 0.8674 0.3263
vn -0.1384 0.8907 0.4330
vn -0.0300 0.9929 0.1149
vn -0.3975 0.9174 0.0216
vn -0.8667 0.4924 -0.0798
vn -0.7944 0.5469 -0.2643
vn -0.4300 0.8833 -0.1868
vn -0.5345 0.8440 -0.0439
vn -0.6836 0.6927 0.2302
vn 0.3899 0.7408 -0.5470
vn 0.4340 0.6682 -0.6043
vn 0.2237 0.8711 -0.4371
vn 0.1143 0.8244 -0.5543
vn 0.3060 0.8039 -0.5101
vn 0.0312 0.6030 -0.7971
vn 0.8551 -0.0344 0.5174
vn 0.8894 0.2592 0.3764
vn -0.9302 0.3604 0.0700
vn -0.3925 0.9193 -0.0289
vn 0.1021 0.9781 0.1816
vn 0.0132 0.9853 0.1704
vn -0.1082 0.7784 0.6184
vn 0.1264 0.7797 0.6133
vn -0.4099 0.7860 -0.4628
vn -0.3900 0.8060 0.4452
vn -0.6218 0.7585 0.1950
vn -0.4518 0.7822 0.4289
vn 0.4452 0.8593 0.2517
vn -0.1106 0.5289 0.8415
vn -0.1673 0.8219 0.5446
vn 0.4529 0.4836 0.7491
vn 0.5059 0.5720 0.6457
vn 0.6269 0.5051 0.5933
vn 0.1873 -0.0687 0.9799
vn -0.2978 0.2912 0.9091
vn 0.2386 0.4646 0.8528
vn -0.6117 0.5757 0.5426
vn -0.7066 0.5623 0.4297
vn -0.1708 0.4310 0.8860
vn 0.3493 0.7496 0.5622
vn 0.1490 0.9327 -0.3285
vn 0.1415 0.7672 -0.6256
vn 0.5525 0.5336 -0.6403
vn 0.4392 0.8691 -0.2276
vn 0.5323 0.7676 -0.3570
vn 0.1648 0.4617 -0.8716
vn -0.3547 -0.3961 0.8469
vn 0.1109 -0.2868 0.9515
vn -0.4691 0.7178 0.5145
vn -0.0338 0.9825 0.1831
vn 0.4026 0.6276 0.6663
vn -0.2078 0.0384 -0.9774
vn -0.1679 0.9858 -0.0068
vn 0.1149 0.4343 0.8934
vn 0.1820 0.5446 0.8187
vn -0.3595 0.8817 -0.3057
vn -0.1344 0.9317 -0.3375
vn 0.0111 0.6286 -0.7776
vn -0.0099 0.5809 -0.8139
vn 0.9025 -0.1316 0.4102
vn 0.9502 -0.1826 0.2527
vn 0.8384 -0.3513 0.4169
vn 0.2992 0.8891 0.3463
vn -0.1728 0.5810 -0.7954
vn -0.1700 0.6221 -0.7643
vn -0.5477 -0.0569 0.8347
vn -0.7241 0.2676 0.6356
vn 0.1892 0.9178 -0.3492
vn 0.3107 0.7555 -0.5768
vn -0.9110 0.1625 0.3790
vn -0.9022 0.4217 -0.0903
vn 0.2313 0.8743 0.4266
vn -0.3346 0.8685 0.3657
vn 0.2495 0.8891 0.3837
vn -0.5361 0.4350 -0.7235
vn -0.1187 0.9581 0.2605
vn 0.5263 0.4158 0.7417
vn -0.5240 0.7588 0.3869
vn -0.2853 0.3792 0.8802
vn -0.3924 0.8948 0.2131
vn -0.2782 0.8326 0.4789
vn -0.8099 0.2605 0.5256
vn -0.8641 -0.4414 0.2419
vn 0.1042 0.7386 -0.6660
vn -0.1685 -0.3135 0.9345
vn -0.4067 0.0441 0.9125
vn -0.4906 -0.4409 0.7516
vn -0.4733 0.7320 -0.4901
vn -0.6045 0.6440 0.4689
vn -0.5742 0.8185 0.0190
vn -0.1278 0.9468 0.2955
vn -0.9245 0.1342 -0.3568
vn -0.7733 0.4806 -0.4136
vn 0.3736 0.8629 -0.3403
vn -0.2128 0.9762 0.0424
vn -0.1782 0.9825 0.0547
vn 0.6970 0.4692 0.5423
vn -0.4290 0.9020 0.0491
vn 0.5267 0.7095 -0.4681
vn -0.2284 0.9068 -0.3544
vn -0.4907 0.8690 -0.0634
vn 0.0417 0.2830 0.9582
vn -0.1070 0.1786 -0.9781
vn -0.1510 0.2896 0.9452
vn 0.0307 0.8975 0.4400
vn 0.3067 0.8846 -0.3513
vn 0.0807 0.9317 -0.3541
vn -0.3591 0.4077 0.8395
vn -0.4715 0.8036 0.3632
vn -0.6748 0.7202 0.1611
vn -0.9633 -0.2677 0.0188
vn 0.9206 -0.1180 0.3723
vn 0.3462 0.8219 0.4523
vn 0.3341 0.6672 0.6658
vn 0.1114 0.7782 0.6181
vn -0.1383 0.9596 -0.2450
vn 0.0591 0.9980 0.0232
vn -0.0792 0.9746 0.2097
vn -0.0498 0.9203 0.3879
vn -0.7249 0.5522 0.4119
vn 0.4909 0.1349 0.8607
vn 0.3223 0.1908 -0.9272
vn 0.1754 0.8803 -0.4408
vn -0.9457 0.2425 -0.2164
vn -0.7791 0.4358 -0.4506
vn -0.9851 -0.0430 -0.1663
vn -0.8411 0.2437 0.4829
vn -0.6947 0.3576 0.6241
vn 0.3585 0.9280 0.1011
vn 0.4416 0.7219 -0.5328
vn 0.4229 0.7068 0.5671
vn 0.2599 0.9240 -0.2804
vn -0.6344 0.4701 -0.6136
vn 0.7425 0.2708 0.6126
vn 0.0048 0.9528 0.3035
vn 0.0655 0.9744 0.2150
vn 0.0804 0.8418 0.5338
vn 0.0163 0.9404 0.3396
vn 0.1208 0.6322 -0.7653
vn -0.5135 0.6080 0.6055
vn -0.0783 0.9729 0.2175
vn -0.9822 -0.0310 -0.1855
vn -0.6315 0.3172 -0.7076
vn -0.2459 0.6348 -0.7325
vn -0.8783 0.4628 0.1199
vn 0.2332 0.8675 0.4394
vn 0.1428 0.6417 0.7536
vn 0.3393 0.8022 -0.4912
vn -0.4121 0.5184 -0.7493
vn 0.0287 0.6237 -0.7811
vn -0.9179 0.3939 -0.0478
vn 0.1950 0.7735 0.6030
vn -0.3075 0.8482 -0.4313
vn -0.1381 0.9895 0.0420
vn -0.1629 0.9866 0.0011
vn 0.7017 0.0044 -0.7124
vn -0.0329 0.9939 0.1048
vn -0.0916 0.9861 -0.1388
vn 0.4610 0.4815 0.7454
vn -0.9160 0.4004 -0.0262
vn -0.4395 0.8778 0.1903
vn 0.2650 0.2812 -0.9223
vn 0.0163 0.9990 -0.0404
vn 0.4912 -0.1038 0.8648
vn 0.2053 0.4407 -0.8739
vn -0.4677 0.4414 -0.7658
vn -0.5029 0.6530 -0.5663
vn -0.1036 0.8945 0.4349
vn -0.5435 -0.0787 0.8357
vn 0.8957 0.4221 0.1396
vn 0.9895 0.1427 0.0223
vn -0.1196 0.3083 0.9437
vn -0.0587 0.6505 -0.7572
vn 0.9213 0.0110 0.3887
vn 0.9812 0.0035 -0.1928
vn 0.2337 0.9663 -0.1081
vn 0.2578 0.9487 0.1833
vn 0.3234 0.9308 -0.1705
vn 0.2306 0.8128 0.5350
vn -0.0504 0.4334 -0.8998
vn -0.2984 0.5760 0.7611
vn 0.3418 0.5902 0.7313
vn -0.0624 0.9699 0.2353
vn 0.3297 -0.5793 0.7454
vn 0.1168 0.6098 0.7839
vn 0.7961 -0.1034 0.5963
vn 0.1142 0.9931 0.0271
vn -0.2994 0.6006 0.7413
vn -0.5573 0.8206 -0.1267
vn -0.2837 0.9451 -0.1623
vn -0.7341 0.6696 -0.1128
vn -0.0927 0.9653 0.2440
vn 0.0940 0.9929 0.0723
vn -0.1385 0.9393 -0.3139
vn 0.8348 0.5448 -0.0797
vn -0.1142 0.8472 -0.5189
vn -0.9894 0.1384 -0.0436
vn 0.3718 0.8826 0.2877
vn -0.8933 0.4491 0.0185
vn 0.1866 0.9819 -0.0328
vn 0.7263 0.5894 0.3536
vn 0.7711 0.3284 0.5455
vn 0.2431 0.9061 -0.3463
vn -0.5336 0.0331 0.8451
vn 0.0217 0.9491 -0.3141
vn 0.0533 0.5412 0.8392
vn 0.0751 0.9970 0.0204
vn -0.3473 0.6866 0.6387
vn 0.1551 0.9615 -0.2268
vn -0.7115 0.7014 0.0429
vn -0.5904 0.2597 0.7642
vn -0.0391 0.7880 0.6144
vn -0.1364 0.9839 0.1159
vn -0.0221 0.3327 -0.9428
vn 0.2318 0.9432 0.2381
vn 0.2392 0.4668 -0.8514
vn -0.0010 0.8806 0.4738
vn 0.0616 0.8927 0.4464
vn -0.6531 0.3731 0.6590
vn 0.7765 0.3466 0.5262
vn 0.0211 0.9394 -0.3422
vn -0.2256 0.8161 -0.5321
vn -0.5216 0.8510 0.0613
vn -0.4206 0.8637 -0.2777
vn -0.1652 0.4402 0.8826
vn -0.1891 0.9120 -0.3639
vn -0.5104 0.8121 0.2827
vn -0.9141 0.3831 0.1329
vn 0.4057 0.1990 -0.8921
vn -0.2208 0.9174 -0.3311
vn -0.3645 0.8857 -0.2875
vn 0.3050 0.8707 0.3858
vn -0.1118 0.8896 0.4429
vn -0.9589 0.2504 -0.1331
vn -0.7262 0.2749 -0.6302
vn -0.1765 0.9609 0.2131
vn -0.3678 0.8312 -0.4169
vn -0.3894 0.8743 -0.2898
vn 0.0577 0.9897 0.1310
vn -0.1831 0.9758 0.1194
vn -0.2532 0.7581 0.6009
vn -0.3601 0.8648 -0.3498
vn 0.3311 0.2735 0.9031
vn -0.4343 0.8572 -0.2769
vn 0.0028 0.2436 0.9699
vn 0.9634 0.0078 -0.2679
vn 0.0740 0.9580 -0.2769
vn 0.2353 0.9370 -0.2582
vn 0.1365 0.9799 0.1453
vn -0.1904 0.7747 0.6030
vn 0.5143 0.6575 -0.5506
vn -0.0858 0.7810 0.6186
vn -0.2154 0.8084 0.5478
vn -0.2339 0.3657 -0.9009
vn 0.1729 0.9133 0.3689
vn -0.0286 0.2469 -0.9686
vt 0.601818 0.233343
vt 0.629796 0.234061
vt 0.623412 0.282877
vt 0.595830 0.348019
vt 0.587252 0.329380
vt 0.616398 0.319909
vt 0.874121 0.830188
vt 0.894086 0.864313
vt 0.809764 0.854295
vt 0.032707 0.466300
vt 0.014260 0.475845
vt 0.006885 0.452089
vt 0.516400 0.045021
vt 0.436584 0.046892
vt 0.467554 0.024854
vt 0.635090 0.468527
vt 0.677055 0.461572
vt 0.660575 0.499852
vt 0.626957 0.212345
vt 0.608431 0.215471
vt 0.558701 0.844673
vt 0.541059 0.877969
vt 0.523177 0.855479
vt 0.851445 0.864261
vt 0.812734 0.920355
vt 0.589028 0.836489
vt 0.570813 0.801969
vt 0.614334 0.813968
vt 0.524147 0.167569
vt 0.490892 0.188680
vt 0.502712 0.136776
vt 0.901550 0.054952
vt 0.878802 0.086285
vt 0.846534 0.071020
vt 0.753842 0.914858
vt 0.720486 0.885606
vt 0.748756 0.885524
vt 0.211846 0.112425
vt 0.248646 0.156458
vt 0.195597 0.145317
vt 0.573761 0.105044
vt 0.568946 0.126006
vt 0.495939 0.070589
vt 0.307907 0.061773
vt 0.346155 0.080680
vt 0.299903 0.076706
vt 0.684053 0.256112
vt 0.655902 0.293034
vt 0.125090 0.749749
vt 0.106080 0.772694
vt 0.077155 0.739674
vt 0.587110 0.557238
vt 0.511176 0.569048
vt 0.552559 0.533664
vt 0.913638 0.380965
vt 0.909958 0.275947
vt 0.948097 0.334994
vt 0.532737 0.978923
vt 0.527038 0.968087
vt 0.559169 0.974097
vt 0.036893 0.956289
vt 0.049345 0.935570
vt 0.047609 0.965717
vt 0.648252 0.967855
vt 0.674578 0.966602
vt 0.669343 0.993877
vt 0.602661 0.464090
vt 0.604724 0.430358
vt 0.054862 0.641995
vt 0.084593 0.643724
vt 0.042674 0.670932
vt 0.443757 0.237611
vt 0.452466 0.265961
vt 0.424175 0.246984
vt 0.370746 0.905228
vt 0.341651 0.951552
vt 0.349477 0.909401
vt 0.198542 0.450871
vt 0.185303 0.433506
vt 0.233469 0.432611
vt 0.513853 0.378354
vt 0.501393 0.408697
vt 0.472222 0.368187
vt 0.292319 0.871575
vt 0.318915 0.896451
vt 0.965444 0.774505
vt 0.974352 0.792833
vt 0.928869 0.775704
vt 0.119713 0.407666
vt 0.102807 0.452715
vt 0.077284 0.489709
vt 0.757996 0.205715
vt 0.773440 0.158152
vt 0.787700 0.192889
vt 0.087485 0.625939
vt 0.062882 0.609868
vt 0.112312 0.367763
vt 0.081541 0.312065
vt 0.099459 0.281679
vt 0.149712 0.530490
vt 0.098208 0.534848
vt 0.109854 0.503573
vt 0.850406 0.040551
vt 0.810232 0.055271
vt 0.428942 0.381814
vt 0.412930 0.320534
vt 0.737383 0.433286
vt 0.692599 0.475205
vt 0.220767 0.355500
vt 0.219734 0.304511
vt 0.246332 0.353604
vt 0.620548 0.112403
vt 0.609149 0.128325
vt 0.591353 0.104974
vt 0.161473 0.588214
vt 0.124471 0.601091
vt 0.121585 0.558305
vt 0.365951 0.877600
vt 0.342242 0.861169
vt 0.008538 0.543306
vt 0.056095 0.568831
vt 0.006834 0.568090
vt 0.604798 0.524779
vt 0.522493 0.228218
vt 0.551946 0.177010
vt 0.558716 0.200751
vt 0.741846 0.564942
vt 0.713704 0.553913
vt 0.784510 0.557353
vt 0.384459 0.362693
vt 0.357505 0.327424
vt 0.384446 0.330763
vt 0.157575 0.307746
vt 0.167749 0.358937
vt 0.403223 0.285856
vt 0.401859 0.237275
vt 0.158521 0.550465
vt 0.145517 0.552620
vt 0.091780 0.126294
vt 0.092896 0.176234
vt 0.063656 0.186322
vt 0.940194 0.892654
vt 0.905665 0.914467
vt 0.378397 0.244444
vt 0.393617 0.181740
vt 0.407846 0.146225
vt 0.401495 0.134896
vt 0.786872 0.096707
vt 0.821422 0.120064
vt 0.785985 0.125437
vt 0.945410 0.296090
vt 0.541016 0.295405
vt 0.557466 0.328733
vt 0.513950 0.319908
vt 0.872685 0.125627
vt 0.832857 0.143035
vt 0.810712 0.337485
vt 0.797392 0.307033
vt 0.830282 0.292181
vt 0.783615 0.750964
vt 0.820009 0.762536
vt 0.783686 0.776480
vt 0.159954 0.774451
vt 0.186034 0.774258
vt 0.156938 0.822849
vt 0.119521 0.645502
vt 0.141495 0.658968
vt 0.117230 0.689680
vt 0.614118 0.621800
vt 0.639912 0.653061
vt 0.605744 0.668231
vt 0.241794 0.910673
vt 0.220549 0.938943
vt 0.207139 0.901500
vt 0.574853 0.183755
vt 0.590010 0.203352
vt 0.895923 0.408297
vt 0.887685 0.325066
vt 0.248285 0.083998
vt 0.263027 0.118370
vt 0.449840 0.294682
vt 0.918853 0.143546
vt 0.929740 0.127355
vt 0.311649 0.404451
vt 0.334467 0.395327
vt 0.355446 0.406892
vt 0.683216 0.343651
vt 0.682468 0.317922
vt 0.705298 0.348185
vt 0.466222 0.213606
vt 0.469297 0.248158
vt 0.546975 0.509160
vt 0.592120 0.488036
vt 0.181489 0.460039
vt 0.194437 0.478289
vt 0.150096 0.502330
vt 0.074785 0.848718
vt 0.104064 0.827809
vt 0.123095 0.854000
vt 0.895262 0.163109
vt 0.878031 0.201770
vt 0.849378 0.196169
vt 0.799670 0.929026
vt 0.837649 0.963469
vt 0.712482 0.038206
vt 0.756610 0.043463
vt 0.723040 0.067287
vt 0.236869 0.844500
vt 0.267411 0.830039
vt 0.266372 0.862362
vt 0.243316 0.871103
vt 0.294129 0.053548
vt 0.056858 0.237322
vt 0.077870 0.220897
vt 0.435763 0.181456
vt 0.465347 0.135719
vt 0.470105 0.162279
vt 0.656412 0.308162
vt 0.256156 0.568539
vt 0.237077 0.560953
vt 0.254295 0.527196
vt 0.075763 0.535692
vt 0.135511 0.118125
vt 0.122159 0.081006
vt 0.144555 0.086419
vt 0.576757 0.440224
vt 0.559578 0.460888
vt 0.545903 0.449611
vt 0.164816 0.684693
vt 0.204801 0.662287
vt 0.193571 0.689875
vt 0.168753 0.719561
vt 0.950316 0.914488
vt 0.928884 0.945640
vt 0.242977 0.234186
vt 0.215627 0.233468
vt 0.214654 0.213335
vt 0.093292 0.489174
vt 0.112836 0.486127
vt 0.922919 0.454955
vt 0.950989 0.425190
vt 0.954507 0.465715
vt 0.907981 0.479536
vt 0.601723 0.753406
vt 0.570628 0.787553
vt 0.528120 0.755846
vt 0.517935 0.805659
vt 0.528092 0.788241
vt 0.092284 0.253117
vt 0.755355 0.086970
vt 0.759573 0.065535
vt 0.548129 0.616704
vt 0.523137 0.617604
vt 0.551565 0.580245
vt 0.328602 0.018967
vt 0.370463 0.067523
vt 0.307884 0.025130
vt 0.540525 0.144082
vt 0.548005 0.375486
vt 0.520834 0.360995
vt 0.652488 0.748245
vt 0.673919 0.754162
vt 0.637008 0.784960
vt 0.967934 0.811125
vt 0.945717 0.811095
vt 0.098850 0.695842
vt 0.130049 0.720911
vt 0.441667 0.119131
vt 0.486483 0.112478
vt 0.466717 0.089229
vt 0.648091 0.848294
vt 0.702264 0.813678
vt 0.608959 0.889875
vt 0.636881 0.870960
vt 0.673494 0.904963
vt 0.459084 0.400783
vt 0.478655 0.404283
vt 0.365377 0.799269
vt 0.392734 0.843712
vt 0.336623 0.812410
vt 0.087803 0.919543
vt 0.059022 0.908665
vt 0.067295 0.715240
vt 0.081820 0.703249
vt 0.906787 0.829471
vt 0.870906 0.785802
vt 0.134581 0.640747
vt 0.507532 0.589068
vt 0.434742 0.099928
vt 0.389562 0.101824
vt 0.218495 0.530368
vt 0.215894 0.555616
vt 0.421519 0.025158
vt 0.482805 0.761125
vt 0.603130 0.575008
vt 0.627306 0.555925
vt 0.365745 0.312256
vt 0.351078 0.296671
vt 0.909732 0.086331
vt 0.917295 0.105116
vt 0.721550 0.531016
vt 0.775616 0.522915
vt 0.421239 0.120775
vt 0.509948 0.540383
vt 0.080954 0.203636
vt 0.742237 0.605442
vt 0.671862 0.574256
vt 0.414902 0.877385
vt 0.437215 0.927281
vt 0.406838 0.911785
vt 0.218474 0.858793
vt 0.817523 0.152896
vt 0.392847 0.303726
vt 0.898595 0.508335
vt 0.861971 0.481546
vt 0.691664 0.400743
vt 0.656594 0.410031
vt 0.674469 0.372340
vt 0.567175 0.223887
vt 0.880309 0.240035
vt 0.906897 0.242685
vt 0.730651 0.672461
vt 0.710886 0.648799
vt 0.232598 0.210793
vt 0.199466 0.181607
vt 0.237849 0.192643
vt 0.641023 0.546549
vt 0.628806 0.533143
vt 0.401826 0.390942
vt 0.400667 0.443918
vt 0.115650 0.221639
vt 0.271434 0.097969
vt 0.278832 0.121298
vt 0.858111 0.217754
vt 0.639820 0.572319
vt 0.647228 0.245923
vt 0.682723 0.240925
vt 0.278425 0.903281
vt 0.300212 0.967134
vt 0.301512 0.938891
vt 0.621707 0.495522
vt 0.149936 0.212247
vt 0.133087 0.202689
vt 0.128550 0.173127
vt 0.989163 0.770432
vt 0.937218 0.759053
vt 0.312348 0.174582
vt 0.360117 0.192558
vt 0.302091 0.197712
vt 0.374290 0.145728
vt 0.350846 0.166261
vt 0.362590 0.112580
vt 0.639789 0.688587
vt 0.585424 0.705495
vt 0.863628 0.933320
vt 0.859913 0.952855
vt 0.399232 0.947633
vt 0.421144 0.991531
vt 0.725593 0.391713
vt 0.683190 0.426900
vt 0.065655 0.890395
vt 0.055638 0.873003
vt 0.967480 0.838322
vt 0.652969 0.042605
vt 0.640175 0.014181
vt 0.879528 0.151406
vt 0.882498 0.353521
vt 0.873586 0.397593
vt 0.853367 0.385673
vt 0.306476 0.531468
vt 0.301605 0.555335
vt 0.791777 0.149935
vt 0.698371 0.617406
vt 0.676009 0.639071
vt 0.295663 0.790770
vt 0.305184 0.823541
vt 0.266377 0.783360
vt 0.700557 0.528255
vt 0.715832 0.506090
vt 0.708045 0.486879
vt 0.762384 0.460170
vt 0.743006 0.454578
vt 0.284068 0.158149
vt 0.331987 0.129117
vt 0.154642 0.635166
vt 0.179085 0.578497
vt 0.187180 0.637620
vt 0.077433 0.268282
vt 0.922985 0.437017
vt 0.915974 0.413436
vt 0.924326 0.413272
vt 0.933030 0.401505
vt 0.760066 0.438011
vt 0.505372 0.352245
vt 0.964041 0.326527
vt 0.483207 0.962134
vt 0.454479 0.951962
vt 0.060007 0.381215
vt 0.003928 0.417476
vt 0.364636 0.254505
vt 0.350629 0.214603
vt 0.674681 0.684027
vt 0.705014 0.712520
vt 0.675790 0.725710
vt 0.404520 0.920828
vt 0.489794 0.274085
vt 0.062680 0.519357
vt 0.893966 0.521649
vt 0.935766 0.520942
vt 0.030057 0.658822
vt 0.023986 0.636567
vt 0.148546 0.927645
vt 0.143651 0.828633
vt 0.678044 0.873081
vt 0.702452 0.903516
vt 0.805892 0.974456
vt 0.694043 0.291028
vt 0.566746 0.073102
vt 0.630563 0.922194
vt 0.697643 0.273811
vt 0.713034 0.230835
vt 0.806360 0.525623
vt 0.773630 0.505824
vt 0.779106 0.474371
vt 0.850195 0.803880
vt 0.830483 0.793865
vt 0.310121 0.220901
vt 0.702715 0.735518
vt 0.714000 0.764145
vt 0.689836 0.757982
vt 0.991500 0.737018
vt 0.976229 0.716516
vt 0.996590 0.715078
vt 0.902020 0.184622
vt 0.053534 0.449622
vt 0.036846 0.428908
vt 0.574612 0.391974
vt 0.620352 0.401133
vt 0.733265 0.099103
vt 0.586814 0.590142
vt 0.159133 0.450377
vt 0.093119 0.571419
vt 0.109582 0.934313
vt 0.074082 0.957157
vt 0.802953 0.167487
vt 0.493569 0.328812
vt 0.790235 0.377288
vt 0.765792 0.351182
vt 0.911176 0.077271
vt 0.162789 0.428465
vt 0.160424 0.402294
vt 0.755545 0.851613
vt 0.811729 0.282206
vt 0.796698 0.255329
vt 0.828269 0.266736
vt 0.702708 0.680414
vt 0.867786 0.510563
vt 0.581980 0.898593
vt 0.557795 0.909144
vt 0.163343 0.165739
vt 0.757421 0.329147
vt 0.739241 0.322537
vt 0.435883 0.957937
vt 0.684267 0.051983
vt 0.214606 0.887533
vt 0.303326 0.307712
vt 0.099165 0.660966
vt 0.179817 0.008390
vt 0.183512 0.041359
vt 0.165857 0.007446
vt 0.948791 0.534969
vt 0.967415 0.561689
vt 0.947329 0.556125
vt 0.698839 0.096283
vt 0.790571 0.029079
vt 0.110279 0.612121
vt 0.662041 0.529754
vt 0.267159 0.083221
vt 0.135736 0.390324
vt 0.578992 0.607827
vt 0.524994 0.943731
vt 0.192802 0.527189
vt 0.299551 0.756656
vt 0.289260 0.772582
vt 0.259532 0.754435
vt 0.264428 0.936948
vt 0.253747 0.028028
vt 0.273973 0.024197
vt 0.626356 0.025226
vt 0.634507 0.099141
vt 0.091400 0.384399
vt 0.062009 0.401059
vt 0.119309 0.882659
vt 0.130996 0.909822
vt 0.558463 0.487341
vt 0.604614 0.952747
vt 0.269898 0.062617
vt 0.966831 0.895441
vt 0.150839 0.111777
vt 0.012279 0.597150
vt 0.232850 0.034713
vt 0.241987 0.040320
vt 0.200569 0.058694
vt 0.749163 0.116884
vt 0.739987 0.159322
vt 0.357853 0.371415
vt 0.445986 0.994736
vt 0.263424 0.228719
vt 0.262984 0.266540
vt 0.571804 0.933555
vt 0.920009 0.743939
vt 0.633491 0.486620
vt 0.969561 0.510213
vt 0.507626 0.194157
vt 0.267101 0.612403
vt 0.369094 0.843759
vt 0.108867 0.785433
vt 0.069087 0.791997
vt 0.069488 0.821617
vt 0.307820 0.243309
vt 0.164619 0.993172
vt 0.149082 0.969185
vt 0.173285 0.974501
vt 0.687569 0.509884
vt 0.632837 0.751294
vt 0.405686 0.484002
vt 0.394895 0.515355
vt 0.376720 0.485421
vt 0.600531 0.963683
vt 0.016497 0.620077
vt 0.357691 0.537652
vt 0.364765 0.502521
vt 0.243351 0.485240
vt 0.213117 0.484727
vt 0.252121 0.444484
vt 0.636371 0.419337
vt 0.383457 0.280440
vt 0.580672 0.275575
vt 0.569641 0.311266
vt 0.677997 0.774059
vt 0.717591 0.777081
vt 0.750078 0.742733
vt 0.629454 0.382777
vt 0.798239 0.586216
vt 0.492445 0.948347
vt 0.457310 0.735117
vt 0.435579 0.761610
vt 0.211061 0.961713
vt 0.745429 0.243764
vt 0.737092 0.255149
vt 0.265437 0.156715
vt 0.274423 0.187211
vt 0.893220 0.959611
vt 0.268642 0.363813
vt 0.273829 0.398558
vt 0.040135 0.285143
vt 0.274773 0.817730
vt 0.383693 0.035712
vt 0.960988 0.572034
vt 0.971050 0.498801
vt 0.283314 0.503513
vt 0.507022 0.521152
vt 0.504077 0.500201
vt 0.515433 0.482531
vt 0.201107 0.423679
vt 0.142931 0.486061
vt 0.678899 0.113375
vt 0.965274 0.878402
vt 0.598258 0.377635
vt 0.642181 0.607815
vt 0.574235 0.662508
vt 0.603674 0.161344
vt 0.829880 0.187591
vt 0.247985 0.404004
vt 0.735056 0.782857
vt 0.591759 0.233349
vt 0.575446 0.348769
vt 0.642037 0.516007
vt 0.762446 0.619809
vt 0.283598 0.460105
vt 0.833401 0.540811
vt 0.873622 0.766673
vt 0.952128 0.736619
vt 0.195675 0.827018
vt 0.173858 0.879687
vt 0.179788 0.816146
vt 0.658476 0.195995
vt 0.690797 0.158472
vt 0.695825 0.214477
vt 0.952975 0.706046
vt 0.736263 0.707079
vt 0.449004 0.081652
vt 0.810053 0.454158
vt 0.557428 0.735610
vt 0.665645 0.794391
vt 0.213835 0.680045
vt 0.802241 0.418149
vt 0.847703 0.759097
vt 0.934733 0.151864
vt 0.941265 0.169181
vt 0.962747 0.388097
vt 0.514295 0.400321
vt 0.238659 0.669594
vt 0.259173 0.067437
vt 0.307706 0.984589
vt 0.363004 0.995316
vt 0.798798 0.798756
vt 0.432828 0.470622
vt 0.558446 0.683846
vt 0.540573 0.645920
vt 0.259252 0.713422
vt 0.320945 0.722934
vt 0.354691 0.754256
vt 0.059133 0.329514
vt 0.085799 0.360290
vt 0.358184 0.775311
vt 0.095318 0.197247
vt 0.254457 0.643835
vt 0.720564 0.223110
vt 0.825518 0.017676
vt 0.869414 0.018501
vt 0.163727 0.945856
vt 0.907607 0.222073
vt 0.931961 0.212058
vt 0.031592 0.301923
vt 0.184490 0.207425
vt 0.175558 0.185308
vt 0.304136 0.332201
vt 0.167009 0.250568
vt 0.179606 0.092986
vt 0.874447 0.964922
vt 0.666499 0.098161
vt 0.650292 0.131241
vt 0.980717 0.853683
vt 0.089447 0.369973
vt 0.457223 0.056223
vt 0.822375 0.482482
vt 0.833996 0.504582
vt 0.313047 0.576152
vt 0.508799 0.985167
vt 0.812221 0.437789
vt 0.013758 0.358895
vt 0.017898 0.338635
vt 0.038485 0.922667
vt 0.724459 0.969647
vt 0.852973 0.451944
vt 0.477524 0.989105
vt 0.705680 0.932208
vt 0.708022 0.981519
vt 0.703726 0.991256
vt 0.167750 0.215537
vt 0.261843 0.307177
vt 0.498072 0.815063
vt 0.042422 0.353472
vt 0.604644 0.261739
vt 0.332182 0.839804
vt 0.344355 0.497036
vt 0.086089 0.766309
vt 0.601291 0.284883
vt 0.704540 0.120199
vt 0.289946 0.174524
vt 0.390583 0.994186
vt 0.127918 0.952240
vt 0.289235 0.603406
vt 0.819427 0.202693
vt 0.930231 0.958780
vt 0.288805 0.982870
vt 0.202280 0.621678
vt 0.920023 0.708332
vt 0.208607 0.020470
vt 0.459842 0.436151
vt 0.868389 0.337525
vt 0.211460 0.992241
vt 0.605776 0.037207
vt 0.622641 0.077533
vt 0.976410 0.364578
vt 0.090265 0.973664
vt 0.131192 0.773140
vt 0.209763 0.984380
vt 0.900016 0.530856
vt 0.548681 0.928009
vt 0.558565 0.958400
vt 0.007982 0.523151
vt 0.212421 0.696226
vt 0.643347 0.220026
vt 0.772972 0.209115
vt 0.956248 0.289156
vt 0.608727 0.744148
vt 0.663949 0.224377
vt 0.388523 0.007773
vt 0.049852 0.259852
vt 0.343275 0.991728
s 1
usemtl MatID_1
f 148/1/1 382/2/2 252/3/3
f 280/4/4 448/5/5 41/6/6
f 108/7/7 516/8/8 267/9/9
f 490/10/10 219/11/11 269/12/12
f 481/13/13 416/14/14 243/15/15
f 158/16/16 179/17/17 163/18/18
f 194/19/19 382/2/2 526/20/20
f 185/21/21 14/22/22 287/23/23
f 267/9/9 253/24/24 363/25/25
f 238/26/26 101/27/27 356/28/28
f 524/29/29 292/30/30 154/31/31
f 13/32/32 319/33/33 181/34/34
f 290/35/35 497/36/36 406/37/37
f 463/38/38 511/39/39 17/40/40
f 471/41/41 85/42/42 472/43/43
f 126/44/44 505/45/45 535/46/46
f 252/3/3 38/47/47 226/48/48
f 40/49/49 286/50/50 94/51/51
f 152/52/52 50/53/53 420/54/54
f 519/55/55 173/56/56 164/57/57
f 169/58/58 399/59/59 275/60/60
f 13/61/32 4/62/61 373/63/62
f 364/64/63 546/65/64 439/66/65
f 347/67/66 506/68/67 158/16/16
f 9/69/68 303/70/69 417/71/70
f 199/72/71 493/73/72 261/74/73
f 295/75/74 104/76/75 513/77/76
f 348/78/77 327/79/78 413/80/79
f 46/81/80 5/82/81 208/83/82
f 460/84/83 295/75/74 569/85/84
f 545/86/85 537/87/86 268/88/87
f 270/89/88 453/90/89 19/91/90
f 184/92/91 119/93/92 542/94/93
f 141/95/94 303/70/69 311/96/95
f 180/97/96 474/98/97 404/99/98
f 437/100/99 222/101/100 262/102/101
f 25/103/102 181/34/34 470/104/103
f 208/83/82 441/105/104 27/106/105
f 179/17/17 541/107/106 489/108/107
f 451/109/108 278/110/109 405/111/110
f 148/112/1 442/113/111 526/114/20
f 389/115/112 16/116/113 118/117/114
f 445/118/115 460/84/83 388/119/116
f 178/120/117 385/121/118 455/122/119
f 248/123/120 152/52/52 420/54/54
f 43/124/121 235/125/122 273/126/123
f 409/127/124 459/128/125 72/129/126
f 133/130/127 35/131/128 315/132/129
f 341/133/130 278/110/109 374/134/131
f 27/106/105 170/135/132 360/136/133
f 198/137/134 74/138/135 437/100/99
f 346/139/136 209/140/137 419/141/138
f 516/8/8 140/142/139 304/143/140
f 99/144/141 230/145/142 360/136/133
f 31/146/143 230/145/142 536/147/144
f 32/148/145 48/149/146 20/150/147
f 95/151/148 164/57/57 173/56/56
f 107/152/149 182/153/150 122/154/151
f 48/149/146 3/155/152 33/156/153
f 365/157/154 12/158/155 124/159/156
f 365/160/154 124/161/156 485/162/157
f 118/117/114 437/100/99 74/138/135
f 194/163/19 526/164/20 436/165/158
f 523/166/159 466/167/160 139/168/161
f 223/169/162 54/170/163 189/171/164
f 437/100/99 118/117/114 222/101/100
f 137/172/165 450/173/166 184/174/91
f 559/175/167 448/176/5 273/126/123
f 160/177/168 51/178/169 519/55/55
f 242/179/170 266/180/171 463/38/38
f 261/74/73 153/181/172 360/136/133
f 402/182/173 3/155/152 190/183/174
f 446/184/175 80/185/176 375/186/177
f 424/187/178 105/188/179 391/189/180
f 199/72/71 362/190/181 283/191/182
f 420/54/54 201/192/183 501/193/184
f 543/194/185 145/195/186 317/196/187
f 250/197/188 383/198/189 136/199/190
f 211/200/191 71/201/192 462/202/193
f 422/203/194 363/25/25 393/204/195
f 102/205/196 393/206/195 323/207/197
f 66/208/198 532/209/199 291/210/200
f 556/211/201 66/208/198 291/210/200
f 348/78/77 543/194/185 327/79/78
f 65/212/202 126/44/44 535/46/46
f 29/213/203 419/141/138 376/214/204
f 177/215/205 112/216/206 22/217/207
f 105/188/179 424/187/178 264/218/208
f 358/219/209 499/220/210 378/221/211
f 222/101/100 401/222/212 262/102/101
f 549/223/213 520/224/214 444/225/215
f 343/226/216 555/227/217 182/228/150
f 171/229/218 324/230/219 214/231/220
f 171/229/218 214/231/220 486/232/221
f 140/142/139 13/233/32 236/234/222
f 403/235/223 429/236/224 320/237/225
f 305/238/226 262/102/101 401/222/212
f 465/239/227 262/102/101 305/238/226
f 529/240/228 266/241/171 242/242/170
f 380/243/229 529/240/228 242/242/170
f 454/244/230 479/245/231 56/246/232
f 101/27/27 64/247/233 115/248/234
f 404/99/98 474/98/97 458/249/235
f 32/148/145 121/250/236 390/251/237
f 63/252/238 45/253/239 176/254/240
f 128/255/241 265/256/242 126/44/44
f 126/44/44 65/212/202 40/257/49
f 475/258/243 524/29/29 154/31/31
f 18/259/244 396/260/245 182/153/150
f 46/81/80 396/260/245 18/259/244
f 125/261/246 52/262/247 47/263/248
f 268/88/87 250/264/188 197/265/249
f 146/266/250 139/168/161 128/267/241
f 251/268/251 112/216/206 31/146/143
f 472/43/43 114/269/252 312/270/253
f 318/271/254 30/272/255 497/36/36
f 183/273/256 272/274/257 570/275/258
f 217/276/259 208/83/82 50/277/53
f 97/278/260 51/279/169 428/280/261
f 23/281/262 4/62/61 438/282/263
f 282/283/264 491/284/265 94/51/51
f 268/88/87 215/285/266 447/286/267
f 398/287/268 466/167/160 523/166/159
f 217/288/259 50/53/53 176/254/240
f 176/254/240 45/253/239 217/288/259
f 440/289/269 421/290/270 416/14/14
f 257/291/271 499/220/210 44/292/272
f 416/14/14 421/290/270 210/293/273
f 64/247/233 547/294/274 56/246/232
f 267/9/9 363/25/25 406/37/37
f 349/295/275 152/52/52 69/296/276
f 477/297/277 35/131/128 6/298/278
f 3/155/152 359/299/279 11/300/280
f 72/129/126 517/301/281 110/302/282
f 440/289/269 49/303/283 421/290/270
f 50/53/53 5/304/81 420/54/54
f 458/249/235 376/214/204 386/305/284
f 116/306/285 337/307/286 459/128/125
f 453/90/89 305/238/226 19/91/90
f 461/308/287 502/309/288 225/310/289
f 556/211/201 542/311/93 66/208/198
f 308/312/290 20/150/147 48/149/146
f 308/312/290 48/149/146 33/156/153
f 251/268/251 31/146/143 49/303/283
f 477/297/277 233/313/291 315/132/129
f 492/314/292 410/315/293 380/243/229
f 192/316/294 395/317/295 151/318/296
f 334/319/297 43/124/121 273/126/123
f 97/320/260 206/321/298 173/56/56
f 116/306/285 127/322/299 240/323/300
f 340/324/301 228/325/302 68/326/303
f 62/327/304 69/296/276 249/328/305
f 480/329/306 449/330/307 375/186/177
f 458/249/235 386/305/284 434/331/308
f 73/332/309 535/46/46 134/333/310
f 516/8/8 253/24/24 267/9/9
f 462/202/193 71/201/192 496/334/311
f 69/296/276 509/335/312 349/295/275
f 509/335/312 69/296/276 62/327/304
f 38/47/47 117/336/313 366/337/314
f 137/172/165 556/211/201 468/338/315
f 258/339/316 70/340/317 104/76/75
f 177/215/205 22/217/207 362/190/181
f 248/123/120 501/193/184 260/341/318
f 352/342/319 434/331/308 76/343/320
f 76/343/320 434/331/308 39/344/321
f 397/345/322 545/86/85 533/346/323
f 254/347/324 100/348/325 26/349/326
f 241/350/327 279/351/328 333/352/329
f 426/353/330 7/354/331 189/171/164
f 393/204/195 567/355/332 138/356/333
f 470/104/103 390/251/237 393/206/195
f 104/76/75 550/357/334 82/358/335
f 115/248/234 479/245/231 101/27/27
f 216/359/336 427/360/337 192/316/294
f 250/197/188 144/361/338 84/362/339
f 84/363/339 197/265/249 250/264/188
f 69/296/276 152/52/52 249/328/305
f 102/205/196 435/364/340 277/365/341
f 478/366/342 211/200/191 462/202/193
f 483/367/343 86/368/344 502/369/288
f 378/221/211 11/370/280 359/371/279
f 3/155/152 11/300/280 190/183/174
f 119/93/92 553/372/345 542/94/93
f 54/170/163 302/373/346 498/374/347
f 515/375/348 92/376/349 71/377/192
f 517/301/281 24/378/350 322/379/351
f 254/347/324 279/351/328 100/348/325
f 322/379/351 489/108/107 544/380/352
f 568/381/353 322/379/351 316/382/354
f 254/347/324 433/383/355 90/384/356
f 298/385/357 28/386/358 379/387/359
f 458/249/235 474/98/97 91/388/360
f 457/389/361 160/177/168 239/390/362
f 135/391/363 456/392/364 457/389/361
f 265/256/242 421/290/270 505/45/45
f 333/352/329 90/384/356 505/45/45
f 10/393/365 568/381/353 316/382/354
f 111/394/366 122/154/151 396/260/245
f 95/151/148 534/395/367 164/57/57
f 502/309/288 187/396/368 202/397/369
f 367/398/370 269/12/12 98/399/371
f 398/287/268 298/385/357 466/167/160
f 207/400/372 77/401/373 99/144/141
f 81/402/374 426/353/330 54/170/163
f 426/353/330 150/403/375 156/404/376
f 130/405/377 295/75/74 225/310/289
f 283/191/182 552/406/378 493/73/72
f 219/11/11 19/91/90 504/407/379
f 518/408/380 492/314/292 508/409/381
f 353/410/382 329/411/383 9/69/68
f 2/412/384 354/413/385 436/165/158
f 570/275/258 297/414/386 423/415/387
f 422/203/194 393/204/195 102/416/196
f 243/15/15 416/14/14 210/293/273
f 68/326/303 17/40/40 511/39/39
f 105/188/179 264/218/208 166/417/388
f 106/418/389 526/114/20 471/41/41
f 183/273/256 570/275/258 522/419/390
f 284/420/391 38/47/47 414/421/392
f 162/422/393 558/423/394 300/424/395
f 361/425/396 521/426/397 447/286/267
f 126/44/44 40/257/49 128/255/241
f 112/216/206 251/268/251 114/269/252
f 77/401/373 339/427/398 26/349/326
f 263/428/399 299/429/400 407/430/401
f 109/431/402 113/432/403 512/433/404
f 211/200/191 402/182/173 488/434/405
f 42/435/406 490/10/10 256/436/407
f 343/226/216 525/437/408 36/438/409
f 390/251/237 323/207/197 393/206/195
f 323/207/197 390/251/237 335/439/410
f 252/3/3 382/2/2 117/336/313
f 142/440/411 152/52/52 349/295/275
f 411/441/412 465/239/227 305/238/226
f 246/442/413 222/101/100 118/117/114
f 553/372/345 20/150/147 308/312/290
f 221/443/414 332/444/415 23/281/262
f 542/94/93 553/372/345 244/445/416
f 553/372/345 308/312/290 244/445/416
f 122/154/151 34/446/417 493/73/72
f 365/157/154 495/447/418 307/448/419
f 373/449/62 319/33/33 13/32/32
f 289/450/420 328/451/421 327/79/78
f 30/272/255 60/452/422 497/36/36
f 60/452/422 267/9/9 406/37/37
f 507/453/423 431/454/424 331/455/425
f 60/452/422 406/37/37 497/36/36
f 124/159/156 507/453/423 331/455/425
f 552/406/378 292/30/30 43/124/121
f 167/456/426 240/323/300 127/322/299
f 291/210/200 460/84/83 569/85/84
f 518/408/380 430/457/427 492/314/292
f 238/26/26 368/458/428 510/459/429
f 39/344/321 549/223/213 21/460/430
f 272/274/257 183/273/256 238/26/26
f 293/461/431 307/448/419 301/462/432
f 304/143/140 140/142/139 236/234/222
f 199/72/71 283/191/182 493/73/72
f 502/309/288 452/463/433 550/357/334
f 502/309/288 202/397/369 452/463/433
f 218/464/434 102/205/196 323/207/197
f 137/172/165 184/174/91 93/465/435
f 35/131/128 370/466/436 6/298/278
f 350/467/437 139/168/161 146/266/250
f 87/468/438 1/469/439 551/470/440
f 159/471/441 87/472/438 212/473/442
f 135/391/363 457/389/361 239/390/362
f 131/474/443 323/207/197 335/439/410
f 519/55/55 135/391/363 239/390/362
f 301/462/432 307/448/419 391/189/180
f 556/211/201 137/172/165 93/465/435
f 393/206/195 138/475/333 470/104/103
f 128/267/241 466/167/160 171/229/218
f 311/96/95 205/476/444 141/95/94
f 176/254/240 142/440/411 63/252/238
f 459/128/125 337/307/286 165/477/445
f 319/33/33 359/299/279 3/155/152
f 317/196/187 437/100/99 262/102/101
f 421/290/270 333/352/329 505/45/45
f 535/46/46 73/332/309 560/478/446
f 351/479/447 374/134/131 328/451/421
f 330/480/448 142/440/411 223/169/162
f 74/138/135 198/137/134 28/386/358
f 410/481/293 399/59/59 187/396/368
f 399/59/59 169/58/58 187/396/368
f 257/291/271 44/292/272 482/482/449
f 531/483/450 548/484/451 488/485/405
f 468/338/315 70/340/317 394/486/452
f 65/212/202 494/487/453 286/488/50
f 157/489/454 435/364/340 204/490/455
f 249/328/305 152/52/52 248/123/120
f 177/215/205 261/74/73 230/145/142
f 245/491/456 42/435/406 143/492/457
f 220/493/458 136/199/190 530/494/459
f 417/71/70 350/467/437 491/284/265
f 382/2/2 148/1/1 526/20/20
f 357/495/460 347/67/66 501/193/184
f 357/495/460 501/193/184 201/192/183
f 65/212/202 535/46/46 560/478/446
f 522/419/390 285/496/461 368/458/428
f 65/212/202 560/478/446 147/497/462
f 13/233/32 140/142/139 4/498/61
f 193/499/463 549/223/213 444/225/215
f 520/224/214 549/223/213 346/139/136
f 328/451/421 453/90/89 270/89/88
f 94/51/51 128/267/241 40/49/49
f 455/122/119 385/121/118 195/500/464
f 213/501/465 58/502/466 155/503/467
f 503/504/468 321/505/469 335/439/410
f 343/226/216 36/438/409 506/68/67
f 394/486/452 137/172/165 468/338/315
f 133/130/127 564/506/470 35/131/128
f 452/463/433 37/507/471 82/358/335
f 403/235/223 534/508/367 200/509/472
f 368/458/428 285/496/461 57/510/473
f 191/511/474 533/346/323 447/286/267
f 492/314/292 380/243/229 508/409/381
f 158/16/16 15/512/475 347/67/66
f 435/364/340 157/489/454 277/365/341
f 410/315/293 492/314/292 430/457/427
f 508/409/381 213/513/465 159/471/441
f 292/30/30 524/29/29 540/514/476
f 291/210/200 532/209/199 460/84/83
f 335/439/410 390/251/237 121/250/236
f 471/41/41 526/114/20 442/113/111
f 471/41/41 442/113/111 85/42/42
f 46/81/80 208/83/82 111/394/366
f 337/307/286 509/335/312 165/477/445
f 249/328/305 165/477/445 62/327/304
f 537/87/86 250/264/188 268/88/87
f 489/108/107 316/382/354 544/380/352
f 101/27/27 479/245/231 356/28/28
f 358/219/209 400/515/477 499/220/210
f 241/350/327 421/290/270 536/147/144
f 59/516/478 445/118/115 388/119/116
f 81/402/374 150/403/375 426/353/330
f 341/133/130 351/479/447 180/97/96
f 109/517/402 383/198/189 397/518/322
f 383/198/189 537/519/86 397/518/322
f 403/235/223 320/237/225 340/324/301
f 428/280/261 92/376/349 515/375/348
f 72/129/126 459/128/125 517/301/281
f 128/267/241 171/229/218 486/232/221
f 6/298/278 387/520/479 339/427/398
f 473/521/480 229/522/481 210/523/273
f 279/351/328 254/347/324 90/384/356
f 103/524/482 165/477/445 163/18/18
f 401/222/212 504/407/379 305/238/226
f 125/261/246 47/263/248 174/525/483
f 454/244/230 174/525/483 47/263/248
f 326/526/484 7/527/331 188/528/485
f 475/258/243 85/42/42 235/125/122
f 364/64/63 369/529/486 285/496/461
f 311/96/95 329/411/383 149/530/487
f 500/531/488 381/532/489 7/527/331
f 514/533/490 232/534/491 342/535/492
f 158/16/16 344/536/493 179/17/17
f 207/400/372 99/144/141 408/537/494
f 318/271/254 272/274/257 238/26/26
f 297/414/386 272/274/257 318/271/254
f 195/500/464 311/96/95 149/530/487
f 107/152/149 525/538/408 343/539/216
f 464/540/495 299/429/400 336/541/496
f 365/160/154 485/162/157 495/542/418
f 185/21/21 101/27/27 238/26/26
f 88/543/497 41/6/6 424/187/178
f 186/544/498 409/127/124 72/129/126
f 186/544/498 116/306/285 409/127/124
f 502/309/288 96/545/499 187/396/368
f 127/546/299 547/294/274 309/547/500
f 56/246/232 547/294/274 127/546/299
f 450/173/166 258/339/316 384/548/501
f 115/248/234 56/246/232 479/245/231
f 191/549/474 431/454/424 561/550/502
f 5/82/81 50/277/53 208/83/82
f 511/39/39 281/551/503 55/552/504
f 330/480/448 63/252/238 142/440/411
f 326/526/484 188/528/485 449/330/307
f 271/553/505 567/355/332 236/234/222
f 132/554/506 484/555/507 405/111/110
f 454/244/230 47/263/248 479/245/231
f 34/446/417 153/181/172 493/73/72
f 91/388/360 566/556/508 29/213/203
f 552/406/378 107/152/149 122/154/151
f 99/144/141 170/135/132 408/537/494
f 2/412/384 136/199/190 354/413/385
f 92/376/349 532/209/199 496/557/311
f 421/290/270 486/558/221 210/293/273
f 97/278/260 548/484/451 531/483/450
f 145/195/186 348/78/77 232/534/491
f 339/427/398 77/401/373 207/400/372
f 6/298/278 339/427/398 207/400/372
f 152/52/52 176/254/240 50/53/53
f 24/378/350 517/301/281 459/128/125
f 212/473/442 87/472/438 551/559/440
f 213/513/465 508/409/381 58/560/466
f 550/357/334 130/405/377 502/309/288
f 190/561/174 11/370/280 378/221/211
f 313/562/509 46/563/80 18/564/244
f 255/565/510 328/451/421 374/134/131
f 543/194/185 78/566/511 411/441/412
f 131/474/443 335/439/410 443/567/512
f 259/568/513 4/498/61 140/142/139
f 301/462/432 284/420/391 561/550/502
f 41/6/6 88/543/497 280/4/4
f 280/4/4 88/543/497 294/569/514
f 532/209/199 66/208/198 496/557/311
f 310/570/515 223/169/162 509/335/312
f 189/171/164 234/571/516 330/480/448
f 72/129/126 110/302/282 162/422/393
f 1/469/439 444/225/215 520/224/214
f 238/26/26 183/273/256 368/458/428
f 68/326/303 511/39/39 340/324/301
f 493/73/72 153/181/172 261/74/73
f 475/258/243 114/269/252 472/43/43
f 366/337/314 414/421/392 38/47/47
f 306/572/517 559/175/167 85/42/42
f 407/430/401 464/540/495 52/262/247
f 134/333/310 535/46/46 90/384/356
f 240/323/300 498/374/347 302/373/346
f 311/96/95 195/500/464 385/121/118
f 462/202/193 123/573/518 478/366/342
f 342/535/492 413/80/79 528/574/519
f 237/575/520 495/542/418 485/162/157
f 248/123/120 420/54/54 501/193/184
f 525/538/408 334/319/297 557/576/521
f 557/577/521 280/4/4 525/437/408
f 248/123/120 75/578/522 249/328/305
f 250/197/188 220/493/458 144/361/338
f 104/76/75 569/85/84 513/77/76
f 127/322/299 116/306/285 56/579/232
f 83/580/523 190/561/174 514/533/490
f 155/503/467 58/502/466 242/179/170
f 162/422/393 454/581/230 186/544/498
f 328/451/421 255/565/510 327/79/78
f 299/429/400 237/575/520 336/541/496
f 260/341/318 75/578/522 248/123/120
f 215/285/266 268/88/87 197/265/249
f 179/17/17 344/536/493 427/360/337
f 511/39/39 463/38/38 266/180/171
f 431/582/424 191/511/474 447/286/267
f 387/520/479 6/298/278 370/466/436
f 109/431/402 469/583/524 113/432/403
f 480/329/306 441/105/104 217/276/259
f 106/584/389 481/585/13 274/586/525
f 276/587/526 476/588/527 384/589/501
f 469/583/524 533/346/323 366/590/314
f 309/591/500 167/456/426 127/322/299
f 416/14/14 67/592/528 440/289/269
f 300/424/395 568/381/353 52/593/247
f 454/244/230 56/246/232 186/594/498
f 563/595/529 47/263/248 464/540/495
f 178/120/117 504/407/379 401/222/212
f 214/231/220 324/230/219 473/596/480
f 559/175/167 273/126/123 235/125/122
f 216/359/336 192/316/294 391/189/180
f 264/218/208 424/187/178 41/6/6
f 263/597/399 10/393/365 216/359/336
f 495/447/418 216/359/336 307/448/419
f 51/178/169 173/56/56 519/55/55
f 124/161/156 331/598/425 521/426/397
f 190/599/174 83/600/523 488/434/405
f 32/148/145 181/34/34 48/149/146
f 10/393/365 541/107/106 216/359/336
f 569/85/84 468/338/315 291/210/200
f 456/392/364 164/57/57 281/601/503
f 182/153/150 396/260/245 122/154/151
f 46/81/80 313/602/509 5/82/81
f 469/583/524 109/431/402 533/346/323
f 516/8/8 304/143/140 253/24/24
f 410/315/293 86/368/344 380/243/229
f 71/377/192 548/484/451 515/375/348
f 54/170/163 310/570/515 302/373/346
f 160/177/168 483/367/343 51/178/169
f 289/450/420 411/441/412 305/238/226
f 469/583/524 366/590/314 113/432/403
f 205/476/444 246/442/413 118/117/114
f 292/30/30 22/217/207 154/31/31
f 80/185/176 564/506/470 375/186/177
f 473/596/480 324/230/219 229/603/481
f 314/604/530 147/497/462 560/478/446
f 241/350/327 333/352/329 421/290/270
f 565/605/531 258/339/316 288/606/532
f 555/227/217 357/495/460 182/228/150
f 485/162/157 227/607/533 237/575/520
f 481/13/13 106/418/389 471/41/41
f 203/608/534 326/526/484 449/330/307
f 398/287/268 523/166/159 205/476/444
f 278/110/109 341/133/130 458/249/235
f 186/544/498 56/579/232 116/306/285
f 514/533/490 190/561/174 257/291/271
f 482/482/449 232/534/491 257/291/271
f 205/476/444 16/116/113 298/385/357
f 42/435/406 19/91/90 490/10/10
f 234/571/516 326/609/484 203/610/534
f 531/483/450 83/611/523 484/612/507
f 132/613/506 531/483/450 484/612/507
f 448/176/5 334/319/297 273/126/123
f 183/273/256 522/419/390 368/458/428
f 27/106/105 441/105/104 480/329/306
f 315/132/129 27/106/105 480/329/306
f 336/541/496 30/272/255 563/595/529
f 89/614/535 474/98/97 196/615/536
f 189/171/164 330/480/448 223/169/162
f 203/610/534 63/252/238 234/571/516
f 331/598/425 447/286/267 521/426/397
f 225/310/289 295/75/74 445/118/115
f 299/429/400 495/542/418 237/575/520
f 97/278/260 132/613/506 206/616/298
f 301/462/432 105/188/179 166/417/388
f 53/617/537 434/331/308 386/305/284
f 318/271/254 497/36/36 297/414/386
f 350/467/437 146/266/250 491/284/265
f 9/69/68 311/96/95 303/70/69
f 229/603/481 324/230/219 355/618/538
f 238/26/26 356/28/28 318/271/254
f 427/360/337 344/536/493 395/317/295
f 384/589/501 321/505/469 450/619/166
f 25/103/102 271/620/505 325/621/539
f 253/24/24 567/355/332 363/25/25
f 216/359/336 391/189/180 307/448/419
f 481/585/13 243/622/15 2/412/384
f 243/622/15 210/523/273 2/412/384
f 210/523/273 229/522/481 2/412/384
f 484/555/507 83/580/523 342/535/492
f 300/424/395 517/301/281 568/381/353
f 206/321/298 132/623/506 405/624/110
f 121/250/236 503/504/468 335/439/410
f 397/345/322 533/346/323 109/431/402
f 267/9/9 361/425/396 108/7/7
f 426/353/330 189/171/164 54/170/163
f 221/443/414 23/281/262 220/493/458
f 192/316/294 427/360/337 395/317/295
f 377/625/540 566/556/508 89/614/535
f 266/241/171 456/392/364 281/601/503
f 340/324/301 511/39/39 55/552/504
f 265/256/242 486/558/221 421/290/270
f 185/21/21 64/247/233 101/27/27
f 554/626/541 527/627/542 320/237/225
f 322/379/351 544/380/352 316/382/354
f 538/628/543 35/131/128 80/185/176
f 32/148/145 20/150/147 503/504/468
f 124/161/156 227/607/533 485/162/157
f 487/629/544 278/110/109 458/249/235
f 487/629/544 458/249/235 434/331/308
f 29/213/203 376/214/204 91/388/360
f 145/195/186 543/194/185 348/78/77
f 506/68/67 347/67/66 343/226/216
f 463/38/38 79/630/545 155/503/467
f 166/417/388 226/48/48 284/420/391
f 116/306/285 302/373/346 337/307/286
f 128/267/241 94/51/51 146/266/250
f 78/566/511 317/196/187 262/102/101
f 163/18/18 15/512/475 158/16/16
f 523/166/159 141/95/94 205/476/444
f 350/467/437 303/70/69 523/166/159
f 138/356/333 271/553/505 470/631/103
f 151/318/296 88/543/497 424/187/178
f 281/551/503 511/39/39 266/180/171
f 445/118/115 295/75/74 460/84/83
f 561/550/502 12/158/155 301/462/432
f 104/76/75 70/340/317 569/85/84
f 72/129/126 162/422/393 186/544/498
f 33/156/153 123/573/518 308/312/290
f 224/632/546 247/633/547 204/490/455
f 322/379/351 568/381/353 517/301/281
f 65/212/202 147/497/462 494/487/453
f 373/63/62 4/62/61 332/444/415
f 292/30/30 283/191/182 362/190/181
f 223/169/162 310/570/515 54/170/163
f 84/363/339 144/634/338 259/568/513
f 86/368/344 483/367/343 160/177/168
f 180/97/96 245/491/456 392/635/548
f 321/505/469 503/504/468 119/93/92
f 515/375/348 97/278/260 428/280/261
f 416/14/14 472/43/43 8/636/549
f 64/247/233 56/246/232 115/248/234
f 99/144/141 77/401/373 100/348/325
f 310/570/515 509/335/312 337/307/286
f 125/637/246 174/638/483 162/422/393
f 280/4/4 557/577/521 448/5/5
f 373/639/62 358/219/209 359/371/279
f 172/640/550 187/396/368 169/58/58
f 258/339/316 394/486/452 70/340/317
f 20/150/147 119/93/92 503/504/468
f 263/597/399 407/641/401 568/381/353
f 257/291/271 232/534/491 514/533/490
f 347/67/66 357/495/460 555/227/217
f 538/628/543 80/185/176 446/184/175
f 188/528/485 7/527/331 381/532/489
f 100/348/325 536/147/144 230/145/142
f 17/40/40 21/460/430 193/499/463
f 5/304/81 313/562/509 420/54/54
f 89/614/535 61/642/551 175/643/552
f 478/366/342 3/155/152 402/182/173
f 259/644/513 144/361/338 438/282/263
f 142/440/411 176/254/240 152/52/52
f 51/178/169 97/320/260 173/56/56
f 490/10/10 269/12/12 256/436/407
f 240/323/300 302/373/346 116/306/285
f 88/543/497 36/438/409 294/569/514
f 503/504/468 121/250/236 32/148/145
f 411/441/412 78/566/511 465/239/227
f 270/89/88 245/491/456 351/479/447
f 7/354/331 234/571/516 189/171/164
f 392/635/548 196/615/536 180/97/96
f 327/79/78 411/441/412 289/450/420
f 515/375/348 548/484/451 97/278/260
f 104/76/75 295/75/74 550/357/334
f 21/460/430 549/223/213 193/499/463
f 277/645/341 422/203/194 102/416/196
f 340/324/301 55/552/504 403/235/223
f 534/508/367 403/235/223 55/552/504
f 282/283/264 417/71/70 491/284/265
f 423/415/387 497/36/36 290/35/35
f 96/646/499 86/368/344 410/315/293
f 185/21/21 510/459/429 14/22/22
f 52/593/247 568/381/353 407/641/401
f 563/595/529 30/272/255 47/263/248
f 111/394/366 208/83/82 34/446/417
f 558/423/394 110/302/282 517/301/281
f 166/417/388 264/218/208 226/48/48
f 555/227/217 343/226/216 347/67/66
f 10/393/365 316/382/354 541/107/106
f 154/31/31 112/216/206 114/269/252
f 231/647/553 202/397/369 187/396/368
f 227/607/533 521/426/397 361/425/396
f 497/36/36 423/415/387 297/414/386
f 57/510/473 510/459/429 368/458/428
f 325/621/539 181/34/34 25/103/102
f 325/621/539 13/32/32 181/34/34
f 423/415/387 168/648/554 570/275/258
f 341/133/130 180/97/96 404/99/98
f 264/218/208 41/6/6 252/3/3
f 559/175/167 235/125/122 85/42/42
f 439/66/65 157/649/454 415/650/555
f 34/446/417 208/83/82 153/181/172
f 177/215/205 230/145/142 31/146/143
f 359/299/279 319/33/33 373/449/62
f 487/629/544 338/651/556 554/626/541
f 95/652/148 405/111/110 200/509/472
f 237/575/520 227/607/533 60/452/422
f 547/294/274 64/247/233 129/653/557
f 6/298/278 207/400/372 408/537/494
f 557/576/521 334/319/297 448/176/5
f 278/110/109 451/109/108 374/134/131
f 135/391/363 519/55/55 456/392/364
f 197/265/249 84/363/339 259/568/513
f 231/647/553 37/507/471 452/463/433
f 432/654/558 367/398/370 61/642/551
f 481/13/13 472/43/43 416/14/14
f 274/586/525 436/165/158 526/164/20
f 274/586/525 526/164/20 106/584/389
f 179/17/17 427/360/337 541/107/106
f 569/85/84 70/340/317 468/338/315
f 39/344/321 527/627/542 76/343/320
f 442/655/111 148/1/1 252/3/3
f 428/280/261 59/516/478 372/656/559
f 264/218/208 252/3/3 226/48/48
f 326/609/484 234/571/516 7/354/331
f 375/186/177 418/657/560 446/184/175
f 53/617/537 386/305/284 209/140/137
f 99/144/141 100/348/325 230/145/142
f 314/604/530 494/487/453 147/497/462
f 143/492/457 367/398/370 245/491/456
f 33/156/153 3/155/152 478/366/342
f 365/157/154 307/448/419 12/158/155
f 472/43/43 312/270/253 8/636/549
f 447/286/267 215/285/266 361/425/396
f 21/460/430 228/325/302 527/627/542
f 494/658/453 94/51/51 286/50/50
f 220/493/458 250/197/188 136/199/190
f 230/145/142 261/74/73 360/136/133
f 403/235/223 200/509/472 429/236/224
f 396/260/245 46/81/80 111/394/366
f 401/222/212 222/101/100 385/121/118
f 43/124/121 540/514/476 235/125/122
f 52/262/247 464/540/495 47/263/248
f 306/659/517 442/655/111 41/6/6
f 434/331/308 338/651/556 487/629/544
f 394/486/452 258/339/316 450/173/166
f 450/173/166 137/172/165 394/486/452
f 136/199/190 383/198/189 109/517/402
f 354/413/385 136/199/190 109/517/402
f 321/505/469 562/660/561 335/439/410
f 95/151/148 173/56/56 206/321/298
f 475/258/243 154/31/31 114/269/252
f 200/509/472 278/110/109 429/236/224
f 375/186/177 564/506/470 480/329/306
f 254/347/324 467/661/562 433/383/355
f 254/347/324 26/349/326 467/661/562
f 305/238/226 453/90/89 289/450/420
f 124/161/156 521/426/397 227/607/533
f 288/606/532 82/358/335 412/662/563
f 567/355/332 304/143/140 236/234/222
f 355/663/538 530/494/459 2/412/384
f 481/13/13 471/41/41 472/43/43
f 406/37/37 363/25/25 290/35/35
f 389/115/112 298/385/357 16/116/113
f 201/192/183 313/562/509 18/564/244
f 373/639/62 332/664/415 358/219/209
f 86/368/344 529/240/228 380/243/229
f 215/285/266 197/265/249 516/8/8
f 524/29/29 475/258/243 235/125/122
f 146/266/250 94/51/51 491/284/265
f 211/200/191 478/366/342 402/182/173
f 234/571/516 63/252/238 330/480/448
f 206/321/298 405/624/110 95/151/148
f 1/469/439 520/224/214 551/470/440
f 24/378/350 489/108/107 322/379/351
f 482/482/449 437/100/99 317/196/187
f 327/79/78 543/194/185 411/441/412
f 331/598/425 431/582/424 447/286/267
f 546/65/64 277/645/341 157/649/454
f 35/131/128 564/506/470 80/185/176
f 356/28/28 479/245/231 47/263/248
f 197/265/249 259/568/513 516/8/8
f 168/648/554 422/203/194 277/645/341
f 42/435/406 270/89/88 19/91/90
f 324/230/219 171/229/218 298/385/357
f 12/158/155 507/453/423 124/159/156
f 484/555/507 342/535/492 528/574/519
f 103/524/482 489/108/107 24/378/350
f 180/97/96 196/615/536 474/98/97
f 218/464/434 131/474/443 224/632/546
f 563/595/529 464/540/495 336/541/496
f 89/614/535 175/643/552 377/625/540
f 221/443/414 355/663/538 332/444/415
f 259/568/513 140/142/139 516/8/8
f 353/410/382 9/69/68 417/71/70
f 216/359/336 495/447/418 263/597/399
f 221/443/414 220/493/458 530/494/459
f 71/377/192 488/485/405 548/484/451
f 211/200/191 488/434/405 71/201/192
f 66/665/198 244/445/416 308/312/290
f 24/378/350 165/477/445 103/524/482
f 44/292/272 28/386/358 198/137/134
f 17/40/40 228/325/302 21/460/430
f 17/40/40 193/499/463 79/630/545
f 66/665/198 308/312/290 123/573/518
f 163/18/18 75/578/522 260/341/318
f 457/389/361 456/392/364 266/241/171
f 292/30/30 552/406/378 283/191/182
f 185/21/21 238/26/26 510/459/429
f 30/272/255 237/575/520 60/452/422
f 17/40/40 79/630/545 463/38/38
f 259/644/513 438/282/263 4/62/61
f 306/572/517 448/176/5 559/175/167
f 236/234/222 13/233/32 325/666/539
f 371/667/564 258/339/316 565/605/531
f 32/148/145 470/104/103 181/34/34
f 251/268/251 440/289/269 312/270/253
f 312/270/253 114/269/252 251/268/251
f 400/515/477 355/618/538 161/668/565
f 198/137/134 437/100/99 482/482/449
f 43/124/121 334/319/297 107/152/149
f 260/341/318 501/193/184 15/512/475
f 53/617/537 209/140/137 39/344/321
f 271/553/505 236/234/222 325/666/539
f 107/152/149 334/319/297 525/538/408
f 481/585/13 2/412/384 436/165/158
f 348/78/77 413/80/79 232/534/491
f 324/230/219 161/668/565 355/618/538
f 372/656/559 92/376/349 428/280/261
f 233/313/291 27/106/105 315/132/129
f 402/182/173 190/599/174 488/434/405
f 196/615/536 367/398/370 89/614/535
f 507/453/423 12/158/155 561/550/502
f 270/89/88 42/435/406 245/491/456
f 333/352/329 279/351/328 90/384/356
f 517/301/281 300/424/395 558/423/394
f 40/257/49 65/212/202 286/488/50
f 380/243/229 242/242/170 508/409/381
f 1/469/439 155/503/467 79/630/545
f 1/469/439 79/630/545 193/499/463
f 444/225/215 1/469/439 193/499/463
f 309/591/500 150/403/375 167/456/426
f 224/632/546 131/474/443 443/567/512
f 303/70/69 350/467/437 417/71/70
f 378/221/211 257/291/271 190/561/174
f 165/477/445 24/378/350 459/128/125
f 332/444/415 4/62/61 23/281/262
f 306/659/517 41/6/6 448/5/5
f 191/511/474 414/669/392 533/346/323
f 28/386/358 161/668/565 379/387/359
f 298/385/357 171/229/218 466/167/160
f 271/553/505 138/356/333 567/355/332
f 231/647/553 187/396/368 172/640/550
f 1/469/439 87/468/438 159/670/441
f 188/528/485 418/657/560 449/330/307
f 232/534/491 317/196/187 145/195/186
f 33/156/153 478/366/342 123/573/518
f 133/130/127 480/329/306 564/506/470
f 83/611/523 531/483/450 488/485/405
f 205/476/444 298/385/357 398/287/268
f 527/627/542 554/626/541 338/651/556
f 257/291/271 378/221/211 499/220/210
f 408/537/494 233/313/291 6/298/278
f 298/385/357 379/387/359 324/230/219
f 19/91/90 305/238/226 504/407/379
f 523/166/159 139/168/161 350/467/437
f 41/6/6 442/655/111 252/3/3
f 449/330/307 45/671/239 203/608/534
f 228/325/302 340/324/301 320/237/225
f 321/505/469 384/589/501 476/588/527
f 51/178/169 483/367/343 461/672/287
f 345/673/566 384/548/501 371/667/564
f 278/110/109 487/629/544 429/236/224
f 562/660/561 321/505/469 476/588/527
f 227/607/533 361/425/396 60/452/422
f 60/452/422 361/425/396 267/9/9
f 415/674/555 157/489/454 539/675/567
f 477/297/277 6/298/278 233/313/291
f 258/339/316 104/76/75 288/606/532
f 323/207/197 131/474/443 218/464/434
f 386/305/284 376/214/204 419/141/138
f 47/263/248 30/272/255 356/28/28
f 247/633/547 224/632/546 443/567/512
f 447/286/267 533/346/323 268/88/87
f 255/565/510 413/80/79 327/79/78
f 55/676/504 281/601/503 534/395/367
f 534/395/367 281/601/503 164/57/57
f 143/492/457 42/435/406 256/436/407
f 311/96/95 385/121/118 246/442/413
f 342/535/492 83/580/523 514/533/490
f 30/272/255 318/271/254 356/28/28
f 529/240/228 86/368/344 160/177/168
f 436/165/158 354/413/385 194/163/19
f 168/648/554 277/645/341 546/65/64
f 552/406/378 122/154/151 493/73/72
f 58/560/466 508/409/381 242/242/170
f 328/451/421 270/89/88 351/479/447
f 154/31/31 22/217/207 112/216/206
f 355/663/538 400/677/477 332/444/415
f 389/115/112 74/138/135 28/386/358
f 464/540/495 407/430/401 299/429/400
f 108/7/7 361/425/396 215/285/266
f 500/531/488 418/657/560 381/532/489
f 364/64/63 439/66/65 369/529/486
f 552/406/378 43/124/121 107/152/149
f 194/163/19 109/517/402 512/678/404
f 18/564/244 357/495/460 201/192/183
f 499/220/210 161/668/565 44/292/272
f 414/421/392 191/549/474 561/550/502
f 490/10/10 19/91/90 219/11/11
f 505/45/45 90/384/356 535/46/46
f 549/223/213 39/344/321 346/139/136
f 379/387/359 161/668/565 324/230/219
f 540/514/476 524/29/29 235/125/122
f 75/578/522 165/477/445 249/328/305
f 232/534/491 413/80/79 342/535/492
f 434/331/308 352/342/319 338/651/556
f 276/679/526 384/548/501 345/673/566
f 527/627/542 338/651/556 76/343/320
f 338/651/556 352/342/319 76/343/320
f 482/482/449 44/292/272 198/137/134
f 502/369/288 461/672/287 483/367/343
f 367/398/370 432/654/558 89/614/535
f 8/636/549 312/270/253 67/592/528
f 8/636/549 67/592/528 416/14/14
f 224/632/546 204/490/455 218/464/434
f 541/107/106 316/382/354 489/108/107
f 241/350/327 536/147/144 100/348/325
f 529/240/228 457/389/361 266/241/171
f 294/569/514 36/438/409 525/437/408
f 220/493/458 438/282/263 144/361/338
f 130/405/377 550/357/334 295/75/74
f 543/194/185 317/196/187 78/566/511
f 7/354/331 426/353/330 156/404/376
f 275/680/60 159/471/441 212/473/442
f 430/681/427 518/682/380 410/481/293
f 296/683/568 219/11/11 504/407/379
f 166/417/388 284/420/391 301/462/432
f 162/422/393 110/302/282 558/423/394
f 151/318/296 344/536/493 88/543/497
f 395/317/295 344/536/493 151/318/296
f 522/419/390 546/65/64 285/496/461
f 458/249/235 341/133/130 404/99/98
f 561/550/502 431/454/424 507/453/423
f 126/44/44 265/256/242 505/45/45
f 178/120/117 296/683/568 504/407/379
f 180/97/96 351/479/447 245/491/456
f 360/136/133 153/181/172 27/106/105
f 276/587/526 247/633/547 476/588/527
f 566/556/508 474/98/97 89/614/535
f 91/388/360 474/98/97 566/556/508
f 66/665/198 123/573/518 462/202/193
f 103/524/482 163/18/18 179/17/17
f 518/682/380 399/59/59 410/481/293
f 27/106/105 153/181/172 208/83/82
f 184/92/91 450/619/166 321/505/469
f 28/386/358 44/292/272 161/668/565
f 355/663/538 221/443/414 530/494/459
f 383/198/189 250/197/188 537/519/86
f 240/323/300 167/456/426 498/374/347
f 201/192/183 420/54/54 313/562/509
f 133/130/127 315/132/129 480/329/306
f 391/189/180 105/188/179 301/462/432
f 128/255/241 486/558/221 265/256/242
f 163/18/18 165/477/445 75/578/522
f 158/16/16 506/68/67 344/536/493
f 16/116/113 205/476/444 118/117/114
f 160/177/168 519/55/55 239/390/362
f 531/483/450 132/613/506 97/278/260
f 200/509/472 405/111/110 278/110/109
f 458/249/235 91/388/360 376/214/204
f 298/385/357 389/115/112 28/386/358
f 125/637/246 300/424/395 52/593/247
f 162/422/393 300/424/395 125/637/246
f 119/93/92 20/150/147 553/372/345
f 362/190/181 22/217/207 292/30/30
f 568/381/353 10/393/365 263/597/399
f 359/371/279 358/219/209 378/221/211
f 210/684/273 214/231/220 473/596/480
f 508/409/381 275/680/60 518/408/380
f 17/40/40 68/326/303 228/325/302
f 556/211/201 291/210/200 468/338/315
f 367/398/370 256/436/407 269/12/12
f 366/590/314 533/346/323 414/669/392
f 382/2/2 194/19/19 512/685/404
f 477/297/277 315/132/129 35/131/128
f 57/510/473 285/496/461 369/529/486
f 541/107/106 427/360/337 216/359/336
f 429/236/224 487/629/544 554/626/541
f 388/119/116 92/376/349 372/656/559
f 532/209/199 92/376/349 388/119/116
f 312/270/253 440/289/269 67/592/528
f 184/92/91 542/94/93 93/686/435
f 167/456/426 81/402/374 498/374/347
f 213/501/465 155/503/467 1/469/439
f 408/537/494 170/135/132 233/313/291
f 26/349/326 100/348/325 77/401/373
f 400/515/477 161/668/565 499/220/210
f 209/140/137 386/305/284 419/141/138
f 78/566/511 262/102/101 465/239/227
f 71/377/192 92/376/349 496/557/311
f 476/588/527 443/567/512 562/660/561
f 48/149/146 319/33/33 3/155/152
f 391/189/180 192/316/294 151/318/296
f 96/545/499 410/481/293 187/396/368
f 95/151/148 200/687/472 534/395/367
f 188/528/485 381/532/489 418/657/560
f 30/272/255 336/541/496 237/575/520
f 156/404/376 500/688/488 7/354/331
f 539/675/567 157/489/454 204/490/455
f 509/335/312 223/169/162 142/440/411
f 82/358/335 288/606/532 104/76/75
f 242/179/170 463/38/38 155/503/467
f 434/331/308 53/617/537 39/344/321
f 528/574/519 413/80/79 451/109/108
f 405/111/110 528/574/519 451/109/108
f 163/18/18 260/341/318 15/512/475
f 49/303/283 536/147/144 421/290/270
f 513/77/76 569/85/84 295/75/74
f 449/330/307 480/329/306 45/671/239
f 45/671/239 480/329/306 217/276/259
f 532/209/199 388/119/116 460/84/83
f 546/65/64 522/419/390 168/648/554
f 522/419/390 570/275/258 168/648/554
f 354/413/385 109/517/402 194/163/19
f 518/682/380 275/60/60 399/59/59
f 81/402/374 54/170/163 498/374/347
f 371/667/564 384/548/501 258/339/316
f 435/364/340 102/205/196 218/464/434
f 405/111/110 484/555/507 528/574/519
f 112/216/206 177/215/205 31/146/143
f 432/654/558 61/642/551 89/614/535
f 196/615/536 392/635/548 367/398/370
f 392/635/548 245/491/456 367/398/370
f 203/610/534 45/253/239 63/252/238
f 489/108/107 103/524/482 179/17/17
f 284/420/391 226/48/48 38/47/47
f 279/351/328 241/350/327 100/348/325
f 457/389/361 529/240/228 160/177/168
f 170/135/132 99/144/141 360/136/133
f 475/258/243 472/43/43 85/42/42
f 285/496/461 546/65/64 364/64/63
f 445/118/115 461/308/287 225/310/289
f 86/368/344 96/646/499 502/369/288
f 59/516/478 428/280/261 51/279/169
f 59/516/478 51/279/169 461/308/287
f 222/101/100 246/442/413 385/121/118
f 304/143/140 567/355/332 253/24/24
f 441/105/104 208/83/82 217/276/259
f 182/153/150 107/152/149 343/539/216
f 328/451/421 289/450/420 453/90/89
f 461/308/287 445/118/115 59/516/478
f 319/33/33 48/149/146 181/34/34
f 247/633/547 443/567/512 476/588/527
f 287/23/23 64/247/233 185/21/21
f 519/55/55 164/57/57 456/392/364
f 85/42/42 442/113/111 306/572/517
f 311/96/95 246/442/413 205/476/444
f 122/154/151 111/394/366 34/446/417
f 351/479/447 341/133/130 374/134/131
f 321/505/469 119/93/92 184/92/91
f 113/689/403 117/336/313 512/685/404
f 512/685/404 117/336/313 382/2/2
f 346/139/136 39/344/321 209/140/137
f 251/268/251 49/303/283 440/289/269
f 486/558/221 214/690/220 210/293/273
f 423/415/387 290/35/35 168/648/554
f 244/445/416 66/665/198 542/94/93
f 232/534/491 482/482/449 317/196/187
f 561/550/502 284/420/391 414/421/392
f 329/411/383 311/96/95 9/69/68
f 231/647/553 452/463/433 202/397/369
f 49/303/283 31/146/143 536/147/144
f 290/35/35 363/25/25 422/203/194
f 177/215/205 362/190/181 199/72/71
f 18/564/244 182/228/150 357/495/460
f 337/307/286 302/373/346 310/570/515
f 496/334/311 66/665/198 462/202/193
f 129/653/557 64/247/233 287/23/23
f 162/422/393 174/638/483 454/581/230
f 139/168/161 466/167/160 128/267/241
f 38/47/47 252/3/3 117/336/313
f 213/501/465 1/469/439 159/670/441
f 12/158/155 307/448/419 293/461/431
f 542/311/93 556/211/201 93/465/435
f 508/409/381 159/471/441 275/680/60
f 374/134/131 451/109/108 255/565/510
f 142/440/411 349/295/275 509/335/312
f 35/131/128 538/628/543 370/466/436
f 116/306/285 459/128/125 409/127/124
f 320/237/225 429/236/224 554/626/541
f 272/274/257 297/414/386 570/275/258
f 320/237/225 527/627/542 228/325/302
f 177/215/205 199/72/71 261/74/73
f 170/135/132 27/106/105 233/313/291
f 424/187/178 391/189/180 151/318/296
f 229/522/481 355/663/538 2/412/384
f 36/438/409 344/536/493 506/68/67
f 268/88/87 533/346/323 545/86/85
f 165/477/445 509/335/312 62/327/304
f 90/384/356 433/383/355 134/333/310
f 451/109/108 413/80/79 255/565/510
f 375/186/177 449/330/307 418/657/560
f 545/86/85 397/345/322 537/87/86
f 385/121/118 178/120/117 401/222/212
f 29/213/203 566/556/508 120/691/569
f 390/251/237 470/104/103 32/148/145
f 303/70/69 141/95/94 523/166/159
f 274/586/525 481/585/13 436/165/158
f 82/358/335 550/357/334 452/463/433
f 425/692/570 565/605/531 288/606/532
f 215/285/266 516/8/8 108/7/7
f 443/567/512 335/439/410 562/660/561
f 21/460/430 527/627/542 39/344/321
f 530/494/459 136/199/190 2/412/384
f 332/664/415 400/515/477 358/219/209
f 61/642/551 367/398/370 98/399/371
f 150/403/375 81/402/374 167/456/426
f 263/428/399 495/542/418 299/429/400
f 271/620/505 25/103/102 470/104/103
f 12/158/155 293/461/431 301/462/432
f 118/117/114 74/138/135 389/115/112
f 525/437/408 280/4/4 294/569/514
f 168/648/554 290/35/35 422/203/194
f 366/337/314 117/336/313 113/689/403
f 502/309/288 130/405/377 225/310/289
f 292/30/30 540/514/476 43/124/121
f 439/66/65 546/65/64 157/649/454
f 15/512/475 501/193/184 347/67/66
f 204/490/455 435/364/340 218/464/434
f 372/656/559 59/516/478 388/119/116
f 309/547/500 547/294/274 129/653/557
f 88/543/497 344/536/493 36/438/409
f 393/204/195 363/25/25 567/355/332
f 256/436/407 367/398/370 143/492/457
f 220/493/458 23/281/262 438/282/263
